<?xml version="1.0" encoding="utf-8"?>
<!-- Generator: Adobe Illustrator 27.1.1, SVG Export Plug-In . SVG Version: 6.00 Build 0)  -->
<svg version="1.1" id="Layer_1" xmlns="http://www.w3.org/2000/svg" xmlns:xlink="http://www.w3.org/1999/xlink" x="0px" y="0px"
	 viewBox="0 0 3675 954" style="enable-background:new 0 0 3675 954;" xml:space="preserve">
<style type="text/css">
	.st0{opacity:0.2;}
</style>
<g id="Group_288" transform="translate(-16 -151)" class="st0">
	<g id="Group_160">
		<g id="_7800" transform="translate(245 151)">
			
				<image style="overflow:visible;enable-background:new    ;" width="5000" height="5000" id="image" xlink:href="70358C1C42AB8ED4.jpeg"  transform="matrix(4.800000e-02 0 0 4.800000e-02 245 151)">
			</image>
		</g>
		<g id="_7800-2" transform="translate(16 151)">
			
				<image style="overflow:visible;enable-background:new    ;" width="5000" height="5000" id="image_00000133492816613149719940000003522091584293168811_" xlink:href="70358C1C42AB8ED4.jpeg"  transform="matrix(4.800000e-02 0 0 4.800000e-02 16 151)">
			</image>
		</g>
		<g id="_7800-3" transform="translate(245 389)">
			
				<image style="overflow:visible;enable-background:new    ;" width="5000" height="5000" id="image_00000006693925421309144860000006721756348304834689_" xlink:href="70358C1C42AB8ED4.jpeg"  transform="matrix(4.800000e-02 0 0 4.800000e-02 245 389)">
			</image>
		</g>
		<g id="_7800-4" transform="translate(16 389)">
			
				<image style="overflow:visible;enable-background:new    ;" width="5000" height="5000" id="image_00000137813692502260904330000009950647720008141995_" xlink:href="70358C1C42AB8EDC.jpeg"  transform="matrix(4.800000e-02 0 0 4.800000e-02 16 389)">
			</image>
		</g>
		<g id="_7800-5" transform="translate(703 151)">
			
				<image style="overflow:visible;enable-background:new    ;" width="5000" height="5000" id="image_00000135659970364300050070000016289433558045553040_" xlink:href="70358C1C42AB8EDC.jpeg"  transform="matrix(4.800000e-02 0 0 4.800000e-02 703 151)">
			</image>
		</g>
		<g id="_7800-6" transform="translate(474 151)">
			
				<image style="overflow:visible;enable-background:new    ;" width="5000" height="5000" id="image_00000057837490626715582800000004515797641575105200_" xlink:href="70358C1C42AB8EDC.jpeg"  transform="matrix(4.800000e-02 0 0 4.800000e-02 474 151)">
			</image>
		</g>
		<g id="_7800-7" transform="translate(703 389)">
			
				<image style="overflow:visible;enable-background:new    ;" width="5000" height="5000" id="image_00000062184394033109212590000012531193031955671214_" xlink:href="70358C1C42AB8EDC.jpeg"  transform="matrix(4.800000e-02 0 0 4.800000e-02 703 389)">
			</image>
		</g>
		<g id="_7800-8" transform="translate(474 389)">
			
				<image style="overflow:visible;enable-background:new    ;" width="5000" height="5000" id="image_00000077316998331881297990000003222177701332240262_" xlink:href="70358C1C42AB8ED4.jpeg"  transform="matrix(4.800000e-02 0 0 4.800000e-02 474 389)">
			</image>
		</g>
		<g id="_7800-9" transform="translate(1161 151)">
			
				<image style="overflow:visible;enable-background:new    ;" width="5000" height="5000" id="image_00000160149996216650347390000009599700712013228937_" xlink:href="70358C1C42AB8ED4.jpeg"  transform="matrix(4.800000e-02 0 0 4.800000e-02 1161 151)">
			</image>
		</g>
		<g id="_7800-10" transform="translate(932 151)">
			
				<image style="overflow:visible;enable-background:new    ;" width="5000" height="5000" id="image_00000075843462376431836510000001802297915147855757_" xlink:href="37BD4015A2CBA4F3.jpeg"  transform="matrix(4.800000e-02 0 0 4.800000e-02 932 151)">
			</image>
		</g>
		<g id="_7800-11" transform="translate(1161 389)">
			
				<image style="overflow:visible;enable-background:new    ;" width="5000" height="5000" id="image_00000126315749849027535740000005958682134719082674_" xlink:href="37BD4015A2CBA4F1.jpeg"  transform="matrix(4.800000e-02 0 0 4.800000e-02 1161 389)">
			</image>
		</g>
		<g id="_7800-12" transform="translate(932 389)">
			
				<image style="overflow:visible;enable-background:new    ;" width="5000" height="5000" id="image_00000165914929623260618020000016312149958324255383_" xlink:href="37BD4015A2CBA4F7.jpeg"  transform="matrix(4.800000e-02 0 0 4.800000e-02 932 389)">
			</image>
		</g>
		<g id="_7800-13" transform="translate(1619 151)">
			
				<image style="overflow:visible;enable-background:new    ;" width="5000" height="5000" id="image_00000082328431957549273600000000302083679658859963_" xlink:href="37BD4015A2CBA4F1.jpeg"  transform="matrix(4.800000e-02 0 0 4.800000e-02 1619 151)">
			</image>
		</g>
		<g id="_7800-14" transform="translate(1390 151)">
			
				<image style="overflow:visible;enable-background:new    ;" width="5000" height="5000" id="image_00000081605687953289696670000012592775108379700921_" xlink:href="37BD4015A2CBA4F3.jpeg"  transform="matrix(4.800000e-02 0 0 4.800000e-02 1390 151)">
			</image>
		</g>
		<g id="_7800-15" transform="translate(1619 389)">
			
				<image style="overflow:visible;enable-background:new    ;" width="5000" height="5000" id="image_00000101824662170853961100000012780471729492994970_" xlink:href="37BD4015A2CBA4F1.jpeg"  transform="matrix(4.800000e-02 0 0 4.800000e-02 1619 389)">
			</image>
		</g>
		<g id="_7800-16" transform="translate(1390 389)">
			
				<image style="overflow:visible;enable-background:new    ;" width="5000" height="5000" id="image_00000091013776344905188830000010969092413246534811_" xlink:href="37BD4015A2CBA4EF.jpeg"  transform="matrix(4.800000e-02 0 0 4.800000e-02 1390 389)">
			</image>
		</g>
	</g>
	<g id="Group_160-2" transform="translate(1832)">
		<g id="_7800-17" transform="translate(245 151)">
			
				<image style="overflow:visible;enable-background:new    ;" width="5000" height="5000" id="image_00000044885321355672251890000007838629267502619286_" xlink:href="37BD4015A2CBA511.jpeg"  transform="matrix(4.800000e-02 0 0 4.800000e-02 245 151)">
			</image>
		</g>
		<g id="_7800-18" transform="translate(16 151)">
			
				<image style="overflow:visible;enable-background:new    ;" width="5000" height="5000" id="image_00000176035389817645515720000004170944879918734775_" xlink:href="37BD4015A2CBA513.jpeg"  transform="matrix(4.800000e-02 0 0 4.800000e-02 16 151)">
			</image>
		</g>
		<g id="_7800-19" transform="translate(245 389)">
			
				<image style="overflow:visible;enable-background:new    ;" width="5000" height="5000" id="image_00000005981648385967961450000001812283887848339842_" xlink:href="37BD4015A2CBA511.jpeg"  transform="matrix(4.800000e-02 0 0 4.800000e-02 245 389)">
			</image>
		</g>
		<g id="_7800-20" transform="translate(16 389)">
			
				<image style="overflow:visible;enable-background:new    ;" width="5000" height="5000" id="image_00000078046265494692208410000016039106576101444751_" xlink:href="37BD4015A2CBA50A.jpeg"  transform="matrix(4.800000e-02 0 0 4.800000e-02 16 389)">
			</image>
		</g>
		<g id="_7800-21" transform="translate(703 151)">
			
				<image style="overflow:visible;enable-background:new    ;" width="5000" height="5000" id="image_00000014629428863531081150000006405348581583217590_" xlink:href="37BD4015A2CBA50A.jpeg"  transform="matrix(4.800000e-02 0 0 4.800000e-02 703 151)">
			</image>
		</g>
		<g id="_7800-22" transform="translate(474 151)">
			
				<image style="overflow:visible;enable-background:new    ;" width="5000" height="5000" id="image_00000083781883979935912270000003386918542662219161_" xlink:href="37BD4015A2CBA536.jpeg"  transform="matrix(4.800000e-02 0 0 4.800000e-02 474 151)">
			</image>
		</g>
		<g id="_7800-23" transform="translate(703 389)">
			
				<image style="overflow:visible;enable-background:new    ;" width="5000" height="5000" id="image_00000129186689920921890820000010416060933892403585_" xlink:href="37BD4015A2CBA536.jpeg"  transform="matrix(4.800000e-02 0 0 4.800000e-02 703 389)">
			</image>
		</g>
		<g id="_7800-24" transform="translate(474 389)">
			
				<image style="overflow:visible;enable-background:new    ;" width="5000" height="5000" id="image_00000117634265576268448840000014081133077394528939_" xlink:href="37BD4015A2CBA53A.jpeg"  transform="matrix(4.800000e-02 0 0 4.800000e-02 474 389)">
			</image>
		</g>
		<g id="_7800-25" transform="translate(1161 151)">
			
				<image style="overflow:visible;enable-background:new    ;" width="5000" height="5000" id="image_00000041993057372445334700000014914519985382888855_" xlink:href="37BD4015A2CBA53A.jpeg"  transform="matrix(4.800000e-02 0 0 4.800000e-02 1161 151)">
			</image>
		</g>
		<g id="_7800-26" transform="translate(932 151)">
			
				<image style="overflow:visible;enable-background:new    ;" width="5000" height="5000" id="image_00000154395984540937138530000005143616686658900405_" xlink:href="37BD4015A2CBA53E.jpeg"  transform="matrix(4.800000e-02 0 0 4.800000e-02 932 151)">
			</image>
		</g>
		<g id="_7800-27" transform="translate(1161 389)">
			
				<image style="overflow:visible;enable-background:new    ;" width="5000" height="5000" id="image_00000170244568465921427910000002201785647916885661_" xlink:href="37BD4015A2CBA53E.jpeg"  transform="matrix(4.800000e-02 0 0 4.800000e-02 1161 389)">
			</image>
		</g>
		<g id="_7800-28" transform="translate(932 389)">
			
				<image style="overflow:visible;enable-background:new    ;" width="5000" height="5000" id="image_00000055664558153023718080000015962867844019448193_" xlink:href="37BD4015A2CBA53A.jpeg"  transform="matrix(4.800000e-02 0 0 4.800000e-02 932 389)">
			</image>
		</g>
		<g id="_7800-29" transform="translate(1619 151)">
			
				<image style="overflow:visible;enable-background:new    ;" width="5000" height="5000" id="image_00000003067551830638322270000013280912116545439374_" xlink:href="37BD4015A2CBA53A.jpeg"  transform="matrix(4.800000e-02 0 0 4.800000e-02 1619 151)">
			</image>
		</g>
		<g id="_7800-30" transform="translate(1390 151)">
			
				<image style="overflow:visible;enable-background:new    ;" width="5000" height="5000" id="image_00000095314814993191080550000009569383465844854424_" xlink:href="37BD4015A2CBA55D.jpeg"  transform="matrix(4.800000e-02 0 0 4.800000e-02 1390 151)">
			</image>
		</g>
		<g id="_7800-31" transform="translate(1619 389)">
			
				<image style="overflow:visible;enable-background:new    ;" width="5000" height="5000" id="image_00000157297620435099233820000006155645063666630809_" xlink:href="37BD4015A2CBA55B.jpeg"  transform="matrix(4.800000e-02 0 0 4.800000e-02 1619 389)">
			</image>
		</g>
		<g id="_7800-32" transform="translate(1390 389)">
			
				<image style="overflow:visible;enable-background:new    ;" width="5000" height="5000" id="image_00000165913609053185138840000008856458180476683425_" xlink:href="37BD4015A2CBA565.jpeg"  transform="matrix(4.800000e-02 0 0 4.800000e-02 1390 389)">
			</image>
		</g>
	</g>
	<g id="Group_160-3" transform="translate(0 476)">
		<g id="_7800-33" transform="translate(245 151)">
			
				<image style="overflow:visible;enable-background:new    ;" width="5000" height="5000" id="image_00000013879201628484722980000001084906300283229095_" xlink:href="37BD4015A2CBA567.jpeg"  transform="matrix(4.800000e-02 0 0 4.800000e-02 245 151)">
			</image>
		</g>
		<g id="_7800-34" transform="translate(16 151)">
			
				<image style="overflow:visible;enable-background:new    ;" width="5000" height="5000" id="image_00000106828563343145587200000015777250477662753950_" xlink:href="37BD4015A2CBA565.jpeg"  transform="matrix(4.800000e-02 0 0 4.800000e-02 16 151)">
			</image>
		</g>
		<g id="_7800-35" transform="translate(245 389)">
			
				<image style="overflow:visible;enable-background:new    ;" width="5000" height="5000" id="image_00000150801319746302931210000003614252894018749103_" xlink:href="37BD4015A2CBA56B.jpeg"  transform="matrix(4.800000e-02 0 0 4.800000e-02 245 389)">
			</image>
		</g>
		<g id="_7800-36" transform="translate(16 389)">
			
				<image style="overflow:visible;enable-background:new    ;" width="5000" height="5000" id="image_00000062910755600053830920000014227052060210459554_" xlink:href="37BD4015A2CBA56D.jpeg"  transform="matrix(4.800000e-02 0 0 4.800000e-02 16 389)">
			</image>
		</g>
		<g id="_7800-37" transform="translate(703 151)">
			
				<image style="overflow:visible;enable-background:new    ;" width="5000" height="5000" id="image_00000142137484873992700730000010578898928392985528_" xlink:href="37BD4015A2CBA56F.jpeg"  transform="matrix(4.800000e-02 0 0 4.800000e-02 703 151)">
			</image>
		</g>
		<g id="_7800-38" transform="translate(474 151)">
			
				<image style="overflow:visible;enable-background:new    ;" width="5000" height="5000" id="image_00000130640653698657512270000011781516604291088019_" xlink:href="37BD4015A2CBA56D.jpeg"  transform="matrix(4.800000e-02 0 0 4.800000e-02 474 151)">
			</image>
		</g>
		<g id="_7800-39" transform="translate(703 389)">
			
				<image style="overflow:visible;enable-background:new    ;" width="5000" height="5000" id="image_00000147941410247409992560000017064162335146496686_" xlink:href="37BD4015A2CBA56B.jpeg"  transform="matrix(4.800000e-02 0 0 4.800000e-02 703 389)">
			</image>
		</g>
		<g id="_7800-40" transform="translate(474 389)">
			
				<image style="overflow:visible;enable-background:new    ;" width="5000" height="5000" id="image_00000085950646390410438550000001713660138426052488_" xlink:href="37BD4015A2CBA540.jpeg"  transform="matrix(4.800000e-02 0 0 4.800000e-02 474 389)">
			</image>
		</g>
		<g id="_7800-41" transform="translate(1161 151)">
			
				<image style="overflow:visible;enable-background:new    ;" width="5000" height="5000" id="image_00000103262435591262840370000004959794709751473821_" xlink:href="37BD4015A2CBA540.jpeg"  transform="matrix(4.800000e-02 0 0 4.800000e-02 1161 151)">
			</image>
		</g>
		<g id="_7800-42" transform="translate(932 151)">
			
				<image style="overflow:visible;enable-background:new    ;" width="5000" height="5000" id="image_00000182512974055178967030000006015486389847412129_" xlink:href="37BD4015A2CBA540.jpeg"  transform="matrix(4.800000e-02 0 0 4.800000e-02 932 151)">
			</image>
		</g>
		<g id="_7800-43" transform="translate(1161 389)">
			
				<image style="overflow:visible;enable-background:new    ;" width="5000" height="5000" id="image_00000152949660736616582570000008813778694861884066_" xlink:href="37BD4015A2CBA540.jpeg"  transform="matrix(4.800000e-02 0 0 4.800000e-02 1161 389)">
			</image>
		</g>
		<g id="_7800-44" transform="translate(932 389)">
			
				<image style="overflow:visible;enable-background:new    ;" width="5000" height="5000" id="image_00000069361391986315613620000013969130616963883438_" xlink:href="37BD4015A2CBA540.jpeg"  transform="matrix(4.800000e-02 0 0 4.800000e-02 932 389)">
			</image>
		</g>
		<g id="_7800-45" transform="translate(1619 151)">
			
				<image style="overflow:visible;enable-background:new    ;" width="5000" height="5000" id="image_00000066493865280051302600000016232919375438882966_" xlink:href="37BD4015A2CBA540.jpeg"  transform="matrix(4.800000e-02 0 0 4.800000e-02 1619 151)">
			</image>
		</g>
		<g id="_7800-46" transform="translate(1390 151)">
			
				<image style="overflow:visible;enable-background:new    ;" width="5000" height="5000" id="image_00000106123891852770405710000015020193377789788310_" xlink:href="37BD4015A2CBA540.jpeg"  transform="matrix(4.800000e-02 0 0 4.800000e-02 1390 151)">
			</image>
		</g>
		<g id="_7800-47" transform="translate(1619 389)">
			
				<image style="overflow:visible;enable-background:new    ;" width="5000" height="5000" id="image_00000124161719423800926040000000189811125571403177_" xlink:href="37BD4015A2CBA540.jpeg"  transform="matrix(4.800000e-02 0 0 4.800000e-02 1619 389)">
			</image>
		</g>
		<g id="_7800-48" transform="translate(1390 389)">
			
				<image style="overflow:visible;enable-background:new    ;" width="5000" height="5000" id="image_00000011001330544848861790000000765380500528419767_" xlink:href="37BD4015A2CBA540.jpeg"  transform="matrix(4.800000e-02 0 0 4.800000e-02 1390 389)">
			</image>
		</g>
	</g>
	<g id="Group_160-4" transform="translate(1832 476)">
		<g id="_7800-49" transform="translate(245 151)">
			
				<image style="overflow:visible;enable-background:new    ;" width="5000" height="5000" id="image_00000147177699246438231430000010135336079075239302_" xlink:href="37BD4015A2CBA540.jpeg"  transform="matrix(4.800000e-02 0 0 4.800000e-02 245 151)">
			</image>
		</g>
		<g id="_7800-50" transform="translate(16 151)">
			
				<image style="overflow:visible;enable-background:new    ;" width="5000" height="5000" id="image_00000126288502998031038710000009117496903676766383_" xlink:href="37BD4015A2CBA5BF.jpeg"  transform="matrix(4.800000e-02 0 0 4.800000e-02 16 151)">
			</image>
		</g>
		<g id="_7800-51" transform="translate(245 389)">
			
				<image style="overflow:visible;enable-background:new    ;" width="5000" height="5000" id="image_00000081624241799813852220000007779008661773476281_" xlink:href="37BD4015A2CBA5BD.jpeg"  transform="matrix(4.800000e-02 0 0 4.800000e-02 245 389)">
			</image>
		</g>
		<g id="_7800-52" transform="translate(16 389)">
			
				<image style="overflow:visible;enable-background:new    ;" width="5000" height="5000" id="image_00000176043583836211033700000006421959655347865515_" xlink:href="37BD4015A2CBA5BB.jpeg"  transform="matrix(4.800000e-02 0 0 4.800000e-02 16 389)">
			</image>
		</g>
		<g id="_7800-53" transform="translate(703 151)">
			
				<image style="overflow:visible;enable-background:new    ;" width="5000" height="5000" id="image_00000095303397811354860660000002802393635748727995_" xlink:href="37BD4015A2CBA5A5.jpeg"  transform="matrix(4.800000e-02 0 0 4.800000e-02 703 151)">
			</image>
		</g>
		<g id="_7800-54" transform="translate(474 151)">
			
				<image style="overflow:visible;enable-background:new    ;" width="5000" height="5000" id="image_00000179626740936103569870000015792303358766963618_" xlink:href="37BD4015A2CBA5A7.jpeg"  transform="matrix(4.800000e-02 0 0 4.800000e-02 474 151)">
			</image>
		</g>
		<g id="_7800-55" transform="translate(703 389)">
			
				<image style="overflow:visible;enable-background:new    ;" width="5000" height="5000" id="image_00000131339975158991810800000017947721249989396893_" xlink:href="37BD4015A2CBA5A5.jpeg"  transform="matrix(4.800000e-02 0 0 4.800000e-02 703 389)">
			</image>
		</g>
		<g id="_7800-56" transform="translate(474 389)">
			
				<image style="overflow:visible;enable-background:new    ;" width="5000" height="5000" id="image_00000111888027781884900780000004684231975310240430_" xlink:href="37BD4015A2CBA5AB.jpeg"  transform="matrix(4.800000e-02 0 0 4.800000e-02 474 389)">
			</image>
		</g>
		<g id="_7800-57" transform="translate(1161 151)">
			
				<image style="overflow:visible;enable-background:new    ;" width="5000" height="5000" id="image_00000012445599868663293370000004572803147706515382_" xlink:href="37BD4015A2CBA5AD.jpeg"  transform="matrix(4.800000e-02 0 0 4.800000e-02 1161 151)">
			</image>
		</g>
		<g id="_7800-58" transform="translate(932 151)">
			
				<image style="overflow:visible;enable-background:new    ;" width="5000" height="5000" id="image_00000047768708970646959410000006279004909406402724_" xlink:href="37BD4015A2CBA5AF.jpeg"  transform="matrix(4.800000e-02 0 0 4.800000e-02 932 151)">
			</image>
		</g>
		<g id="_7800-59" transform="translate(1161 389)">
			
				<image style="overflow:visible;enable-background:new    ;" width="5000" height="5000" id="image_00000131361377163438632290000014687754428008010416_" xlink:href="37BD4015A2CBA5AD.jpeg"  transform="matrix(4.800000e-02 0 0 4.800000e-02 1161 389)">
			</image>
		</g>
		<g id="_7800-60" transform="translate(932 389)">
			
				<image style="overflow:visible;enable-background:new    ;" width="5000" height="5000" id="image_00000085232135822959596790000003024172847025885320_" xlink:href="37BD4015A2CBA58E.jpeg"  transform="matrix(4.800000e-02 0 0 4.800000e-02 932 389)">
			</image>
		</g>
		<g id="_7800-61" transform="translate(1619 151)">
			
				<image style="overflow:visible;enable-background:new    ;" width="5000" height="5000" id="image_00000016790955971606802080000017900306600899719862_" xlink:href="37BD4015A2CBA58E.jpeg"  transform="matrix(4.800000e-02 0 0 4.800000e-02 1619 151)">
			</image>
		</g>
		<g id="_7800-62" transform="translate(1390 151)">
			
				<image style="overflow:visible;enable-background:new    ;" width="5000" height="5000" id="image_00000046316467559136588220000014933895064012453007_" xlink:href="37BD4015A2CBA58A.jpeg"  transform="matrix(4.800000e-02 0 0 4.800000e-02 1390 151)">
			</image>
		</g>
		<g id="_7800-63" transform="translate(1619 389)">
			
				<image style="overflow:visible;enable-background:new    ;" width="5000" height="5000" id="image_00000092431345479014905160000013013050405252171909_" xlink:href="37BD4015A2CBA58A.jpeg"  transform="matrix(4.800000e-02 0 0 4.800000e-02 1619 389)">
			</image>
		</g>
		<g id="_7800-64" transform="translate(1390 389)">
			
				<image style="overflow:visible;enable-background:new    ;" width="5000" height="5000" id="image_00000107563530031849502290000005721649090929750670_" xlink:href="37BD4015A2CBA5F6.jpeg"  transform="matrix(4.800000e-02 0 0 4.800000e-02 1390 389)">
			</image>
		</g>
	</g>
</g>
</svg>
