<svg xmlns="http://www.w3.org/2000/svg" xmlns:xlink="http://www.w3.org/1999/xlink" width="1266.339" height="476.092" viewBox="0 0 1266.339 476.092">
  <defs>
    <clipPath id="clip-path"/>
  </defs>
  <g id="Group_291" data-name="Group 291" transform="translate(0.501 0.502)" clip-path="url(#clip-path)">
    <path id="Union_1" data-name="Union 1" d="M-9090.673-1954.819h-562.613v-.23h75.691v-165.036c0-.058.067-.109.155-.114l116.06-6.553h.029l59.9,3.128v-95.428c0-.058.058-.106.146-.111l7.677-.652a.133.133,0,0,1,.044,0l3.009.259,26.991-2.292v-9.208c-1.345-.23-1.986-.482-2-.787V-2257a.407.407,0,0,1,.221-.312c1.188-.792,7.336-1.33,14.621-1.272,4,.029,8.094.24,11.214.579,3.3.356,4.977.775,4.977,1.24v25.159c-.02.216-.354.4-1.037.567v6.805l33.774-2.835v-8.109c-.121.01-.242.017-.366.017-.1,0-.2,0-.29-.012l-.037,0-.058-.007c-.046,0-.1-.007-.148-.015l-.717-.085a4.037,4.037,0,0,1-3.658-4.073,5.09,5.09,0,0,1,4.569-4.86,4.44,4.44,0,0,1,.5-.029c.1,0,.2,0,.3.012v0l.026,0c.106.01.216.02.317.034l.707.08,0,.092.021-.09.111.012.029,0a4.062,4.062,0,0,1,3.563,3.98,4.976,4.976,0,0,1-3.568,4.642v8.3l9.906-.831v-.48c0-.058.063-.1.146-.111l8.273-.7a.144.144,0,0,1,.046,0l9.645.875v-27.429c0-.053.059-.1.143-.112l30.771-2.875v-5.613c-.067,0-.146.01-.221.01a2.1,2.1,0,0,1-.211-.01h-.026l-.041,0-.111-.012-.509-.058a2.927,2.927,0,0,1-2.655-2.944,3.674,3.674,0,0,1,3.307-3.5,2.671,2.671,0,0,1,.366-.022h.09v-1.8c-.131.01-.257.015-.386.015s-.262,0-.39-.015h-.037l-.079-.01c-.061-.007-.126-.014-.194-.024l-.952-.109a5.334,5.334,0,0,1-4.826-5.383,6.728,6.728,0,0,1,6.04-6.422,5.008,5.008,0,0,1,.661-.041c.126,0,.255,0,.381.015v0l.036,0c.141.012.281.024.419.046l.94.1v.114l.024-.111.149.017.034.007a5.361,5.361,0,0,1,4.7,5.26,6.656,6.656,0,0,1-5.17,6.28v2.231a2.888,2.888,0,0,1,2.229,2.806,3.536,3.536,0,0,1-2.231,3.21v5.839l15.488-1.446v-8.257c-.109.01-.219.015-.322.015s-.206,0-.306-.012h-.031l-.065-.01a1.194,1.194,0,0,1-.15-.014l-.736-.085a4.163,4.163,0,0,1-3.772-4.2,5.25,5.25,0,0,1,4.71-5c.172-.017.347-.027.519-.027.1,0,.2,0,.3.01h0l.026,0c.109.007.219.019.322.034l.731.08.02,0,.116.01.029.007a4.185,4.185,0,0,1,3.671,4.1,5.143,5.143,0,0,1-3.724,4.794v8.421l7.12-.664a.156.156,0,0,1,.048,0l69.043,7.072v-115.9c0-.053.059-.1.139-.112l30.562-3.736v-7.559c0-.058.059-.1.139-.114l27.172-3.416a.3.3,0,0,1,.065,0v0l20.457,3.065c.077.012.134.056.134.111v1.979l41.888-5.148v-44.756c0-.061.072-.112.162-.114l3.069-.077a.212.212,0,0,1,.118.031.1.1,0,0,1,.059.082v44.417l6.359-.782a.331.331,0,0,1,.068,0l1.4.213v-22.6c0-.061.067-.112.155-.114l2.018-.07a.252.252,0,0,1,.126.029.107.107,0,0,1,.049.085v23.032l44.1,6.8c.072.012.131.056.131.111v25.084l34.644,5.005,33.634-3.7.063,0,25.205,3.719v-48.577a.1.1,0,0,1,.056-.08.183.183,0,0,1,.124-.031l2.769.1c.087,0,.157.051.157.112v48.94l1.932.281v-.751c0-.058.056-.1.138-.111L-8848.6-2351a.2.2,0,0,1,.065,0l21.488,3.246c.078.012.134.056.134.112v6.221l29.346,4.334c.082.007.131.053.131.109v9.591l5.5.79c.075.01.134.058.134.114v2.808l.768.135,5.623-.54.061,0,39.432,5.6c.077.01.13.056.13.111v81.089l23.057-1.708v-5.9c-.085,0-.162.01-.247.01s-.15,0-.221-.007l-.031,0-.046,0-.109-.012-.542-.053a2.891,2.891,0,0,1-2.83-2.74c0-1.625,1.546-3.057,3.521-3.261a3.436,3.436,0,0,1,.388-.019c.041,0,.082,0,.126,0v-1.994c-.119.007-.242.012-.366.012s-.271,0-.407-.012l-.036,0-.082-.01c-.068,0-.139-.012-.2-.02l-1.008-.1a5.22,5.22,0,0,1-5.095-4.961c0-2.953,2.8-5.555,6.372-5.924a6.7,6.7,0,0,1,.7-.039c.133,0,.267.007.4.014l.034,0c.152.01.3.024.45.044l.993.094v.109l.024-.106.157.017.032,0c2.837.325,4.964,2.406,4.964,4.85,0,2.764-2.307,5.1-5.688,5.841v2.3a2.861,2.861,0,0,1,2.534,2.648,3.381,3.381,0,0,1-2.554,3.048v6.076l15.813-1.173v-8.654c-.058,0-.113,0-.169,0-.107,0-.216,0-.32-.01l-.031,0-.065,0-.162-.017-.79-.077a4.11,4.11,0,0,1-4.024-3.888c0-2.306,2.21-4.341,5.027-4.632a5.121,5.121,0,0,1,.548-.029c.108,0,.21,0,.319.01l.024,0c.123.007.237.02.358.034l.775.073.02,0,.123.012.029,0a4.124,4.124,0,0,1,3.92,3.8c0,2.1-1.713,3.876-4.242,4.516v8.76l15.539-1.148a.132.132,0,0,1,.044,0l90.907,10.5c.085.007.146.056.146.111V-2115.1l48.993-2.045h.026l93.771,6.587c.085,0,.153.053.153.111v155.4h66.831v.23Zm542.12-.23h93.438v-155.292l-93.437-6.561Zm-49.17-159.823v159.823h48.833v-161.858Zm-40.129,159.823h39.792v-35.288l-39.792-.63Zm-8.787,0h8.455v-35.926l-8.455-.133Zm-42,0h41.66v-36.061l-41.66-.661Zm-51.813-81.818v81.818h51.481v-82.937Zm-5.34,81.818h5v-255.1l-5-.555Zm-39.429,0h39.093v-363.224l-39.093-5.548Zm-5.475-368.29v368.29h5.139V-2323.83Zm-7.527,368.29h7.2v-368.258a.181.181,0,0,1-.062,0l-.715-.126v11.772a.116.116,0,0,1-.063.09.25.25,0,0,1-.082.024l-6.279.608v8.731l6.276.841c.078.01.136.058.136.109v14.841a.1.1,0,0,1-.062.087.173.173,0,0,1-.08.024v0l-6.27.567v8.85l6.276.787c.078.012.136.058.136.111v14.839a.108.108,0,0,1-.062.09.208.208,0,0,1-.085.022v0l-6.265.5v8.877l6.271.719c.083.01.141.056.141.114v14.839a.112.112,0,0,1-.058.087.212.212,0,0,1-.09.024l-6.294.5v9.012l6.3.661c.078,0,.141.053.141.111v14.836a.1.1,0,0,1-.058.087.217.217,0,0,1-.093.024v0l-6.262.422v9.143l6.27.6c.08.01.143.058.143.112v14.841a.1.1,0,0,1-.058.085.182.182,0,0,1-.093.027l-6.255.383v9.3l6.258.538c.085.007.147.058.147.114l-.1,14.8a.112.112,0,0,1-.058.085.226.226,0,0,1-.1.027v0l-6.146.308v9.347l6.255.472c.083,0,.15.053.15.114l-.1,14.8a.109.109,0,0,1-.058.083.231.231,0,0,1-.1.029l-6.144.31v9.494l6.252.414c.083.007.15.056.15.114l-.1,14.8a.1.1,0,0,1-.056.085.21.21,0,0,1-.1.029l-6.168.281v9.577l6.274.356c.085,0,.152.053.152.111l-.1,14.8a.1.1,0,0,1-.056.082.215.215,0,0,1-.1.031l-6.151.281v9.637l6.253.293c.087,0,.157.058.157.114l-.1,14.8a.1.1,0,0,1-.056.085.25.25,0,0,1-.106.031l-6.142.2v9.708l6.248.228c.087,0,.157.053.157.114l-.1,14.8a.1.1,0,0,1-.056.082.213.213,0,0,1-.106.031l-6.142.2v9.851l6.246.172c.089,0,.159.053.159.114l-.1,14.8a.093.093,0,0,1-.056.08.216.216,0,0,1-.109.034l-6.139.145v9.94l6.241.119c.094,0,.164.048.164.114l-.1,14.8a.1.1,0,0,1-.051.08.222.222,0,0,1-.121.034l-6.132-.08Zm-46.183-29.232v29.232h45.846v-28.662l-44.841-.577Zm-47.075.482v28.75h46.738v-29.227Zm-8.113,28.75h7.776V-1983.8l-5.821.061a.188.188,0,0,1-.119-.034.1.1,0,0,1-.053-.08v-14.911c0-.063.077-.111.169-.111l52.9-.727v-10.056l-47.368.681-4.828-.119-.7.012a.229.229,0,0,1-.124-.034.1.1,0,0,1-.053-.082v-14.909c0-.061.075-.111.165-.114l52.9-1.039v-10.04l-47.368,1.022-5.01-.155-.514.012a.256.256,0,0,1-.124-.029.106.106,0,0,1-.053-.085v-14.909c0-.061.075-.114.162-.116l52.906-1.42v-9.875l-47.368,1.325h-.021l-5.163-.267-.337.01a.211.211,0,0,1-.126-.031.109.109,0,0,1-.053-.082v-14.912c0-.061.075-.109.162-.111l52.906-1.764v-9.889l-47.365,1.761h-.024l-5.23-.327-.27.01a.2.2,0,0,1-.123-.031.1.1,0,0,1-.056-.083v-14.909c0-.063.075-.112.162-.114l52.906-2.132v-9.734l-47.365,1.991-.029,0-5.255-.364-.237.012a.232.232,0,0,1-.126-.031.107.107,0,0,1-.056-.085v-14.909c0-.058.07-.111.157-.114l52.911-2.5v-9.7l-47.363,2.413h-.031l-5.27-.364-.223.012a.213.213,0,0,1-.126-.031.1.1,0,0,1-.056-.082V-2150.8c0-.061.07-.109.157-.114l29.745-1.643-20.694,1.1h-.015a.227.227,0,0,1-.113-.031.12.12,0,0,1-.056-.085v-8.8c0-.058.072-.109.157-.112l41.115-2.282a.219.219,0,0,1,.126.031.1.1,0,0,1,.056.082v8.9a.081.081,0,0,1-.031.063l2.577-.14v-9.582l-47.314,2.684h-.039l-5.306-.455-.184.012a.24.24,0,0,1-.126-.029.107.107,0,0,1-.056-.082V-2176.2c0-.058.067-.107.155-.112l8.869-.543v-8.816c0-.056.072-.107.155-.114l41.117-2.624a.208.208,0,0,1,.126.029.1.1,0,0,1,.056.085v8.91l2.546-.155v-9.567l-47.314,3.06h-.039l-5.312-.456-.172.012a.261.261,0,0,1-.131-.029.1.1,0,0,1-.056-.085v-14.909c0-.061.067-.109.155-.114l8.869-.611v-8.755c0-.058.072-.107.155-.114l41.112-2.9a.236.236,0,0,1,.131.029.1.1,0,0,1,.056.087v8.794l2.546-.177v-9.441l-47.312,3.365h-.047l-5.332-.535-.143.012a.217.217,0,0,1-.131-.029.1.1,0,0,1-.061-.085V-2226.9c0-.058.067-.107.152-.114l8.872-.666v-8.712c0-.058.067-.107.152-.114l41.115-3.147a.24.24,0,0,1,.131.029.109.109,0,0,1,.056.085v8.746l2.59-.2v-9.354l-47.355,3.719h-.049l-5.352-.625-.121.01a.2.2,0,0,1-.131-.029.1.1,0,0,1-.061-.085v-14.909c0-.058.067-.107.147-.114l8.877-.729v-8.6c0-.056.067-.1.152-.111l27.636-2.326,13.475-1.129a.227.227,0,0,1,.136.027.106.106,0,0,1,.056.085v8.649l2.59-.213v-9.257l-47.355,4.024a.2.2,0,0,1-.054,0l-5.361-.676-.106.01a.2.2,0,0,1-.131-.029.1.1,0,0,1-.061-.085v-14.909c0-.058.067-.109.147-.116l8.877-.782v-8.5c0-.056.067-.1.147-.111l13.947-1.255h0l27.163-2.445a.238.238,0,0,1,.136.027.11.11,0,0,1,.056.085v8.545l2.567-.228v-9.141l-47.333,4.344a.2.2,0,0,1-.054,0l-5.364-.678-.1.01a.211.211,0,0,1-.133-.027.1.1,0,0,1-.061-.087v-14.909c0-.056.063-.1.146-.114l8.879-.855v-8.443c0-.056.063-.1.147-.111l41.112-4.017a.246.246,0,0,1,.134.024.1.1,0,0,1,.061.087v8.475l2.575-.247v-9.095l-49.747,4.957a.251.251,0,0,1-.061,0l-3.642-.569v11.4a.12.12,0,0,1-.062.087.237.237,0,0,1-.085.022v0l-1.284.119v10.321l1.292.162c.079.01.14.058.14.111v15.52a.111.111,0,0,1-.062.087.194.194,0,0,1-.085.024v0l-1.276.109v10.371l1.284.148c.077.012.14.061.14.114v15.52a.1.1,0,0,1-.062.085.183.183,0,0,1-.09.027v0l-1.271.1v10.354l1.279.133c.082.007.145.056.145.114v15.52a.122.122,0,0,1-.061.087.212.212,0,0,1-.092.024v0l-1.271.1v10.415l1.276.124c.08,0,.147.056.147.114v15.52a.1.1,0,0,1-.061.085.2.2,0,0,1-.094.027v0l-1.26.08v10.408l1.267.109c.08.01.147.053.147.114v15.52a.1.1,0,0,1-.061.085.179.179,0,0,1-.094.027v0l-1.27.075v10.417l1.271.1c.085.007.152.056.152.114v15.52a.1.1,0,0,1-.061.085.179.179,0,0,1-.1.027v0l-1.267.068v10.447l1.27.087c.087.007.154.053.154.111v15.52a.106.106,0,0,1-.058.085.231.231,0,0,1-.1.029l-1.3.061v10.5l1.3.073c.085,0,.154.053.154.114v15.52a.1.1,0,0,1-.058.082.2.2,0,0,1-.1.031v0l-1.281.044v10.476l1.281.058c.093,0,.162.053.162.114v15.52a.1.1,0,0,1-.058.083.2.2,0,0,1-.1.031l-1.252.046v10.507l1.252.044c.088,0,.162.053.162.111v15.522a.105.105,0,0,1-.058.085.183.183,0,0,1-.106.027v0l-1.235.034v10.553l1.235.034c.09,0,.164.051.164.116v15.517a.11.11,0,0,1-.053.082.243.243,0,0,1-.116.034l-1.224.017v10.589l1.229.017c.087,0,.164.053.164.116v15.52a.1.1,0,0,1-.053.082.231.231,0,0,1-.116.031h-.008l-1.211-.015Zm-10.693,0h10.361v-30.014l-10.361-.111Zm-36.895,0h36.563v-30.128l-34.828-.388-1.734-.007Zm-16.845,0h16.5v-379.41l-16.5-2.3Zm-6.655,0h6.318v-381.718l-6.338.656v9.323l4.516.608c.078.012.136.061.136.114v15.885a.107.107,0,0,1-.062.087.2.2,0,0,1-.085.022v0l-4.489.409v9.955l4.5.564c.078.01.136.053.136.112v15.885a.1.1,0,0,1-.062.085.2.2,0,0,1-.088.027v0l-4.481.359v10l4.491.514c.078.01.141.058.141.114v15.885a.114.114,0,0,1-.062.087.253.253,0,0,1-.088.022v0l-4.494.354v10.01l4.5.468c.08.007.143.056.143.111v15.885a.093.093,0,0,1-.062.085.172.172,0,0,1-.088.027v0l-4.484.375v10.166l4.487.424c.085.01.147.058.147.114v15.885a.1.1,0,0,1-.058.085.247.247,0,0,1-.095.024v0l-4.468.31v10.3l4.47.39c.088.007.15.056.15.111v15.888a.1.1,0,0,1-.058.085.253.253,0,0,1-.1.024v0l-4.484.237v10.248l4.491.337c.085.007.15.056.15.114v15.885a.1.1,0,0,1-.058.085.219.219,0,0,1-.1.029l-4.458.228v10.391l4.463.291c.082,0,.152.053.152.114v15.885a.1.1,0,0,1-.056.082.214.214,0,0,1-.1.029l-4.478.213v10.468l4.478.254c.087,0,.157.053.157.114v15.885a.1.1,0,0,1-.056.083.2.2,0,0,1-.1.031l-4.513.187v10.514l4.516.213c.087,0,.157.056.157.114v15.888a.1.1,0,0,1-.056.082.234.234,0,0,1-.109.027v0l-4.5.133v10.594l4.506.167c.09,0,.16.056.16.114v15.888a.1.1,0,0,1-.056.08.188.188,0,0,1-.109.031l-4.47.111v10.667l4.47.119c.093,0,.165.053.165.114v15.888a.1.1,0,0,1-.056.08.183.183,0,0,1-.111.031l-4.465.036v10.81l4.467.078c.088,0,.165.053.165.114v15.885a.1.1,0,0,1-.051.082.247.247,0,0,1-.121.031l-4.46-.053Zm-45.515-31.381v31.381h45.178v-30.836l-44.55-.552Zm-58.691.569v30.811h58.353v-31.378Zm-15.616-356.925v387.736h15.282v-30.809l-5.623.058h0a.212.212,0,0,1-.116-.036.089.089,0,0,1-.049-.08v-7.421h-.823c-.095,0-.17-.048-.17-.114v-343.111c0-.051.056-.094.131-.106l.865-.133v-7.1Zm-6.071,165.552.049,222.184h5.686v-420.207l-5.78-.782Zm-50.3-192.705v414.889h50.016l-.046-191.639-.054-229.353Zm-3.813,414.889h3.474v-38.462l-3.474-.053Zm-11.338,0h11v-38.52l-11-.157Zm-54.2,0h53.863v-38.682l-53.863-.768Zm-47.689-87.487v87.487h47.354v-88.773ZM-9282-1955.049h17.743v-272.4l-17.743-1.611Zm-8.278-273.339v273.339h7.941v-274.012Zm-45.374,241.088v32.25h45.042v-32.774Zm-3.019,32.25h2.682v-32.364c0-.061.073-.114.165-.114l1.608-.017v-20.985l-1.638.027h0a.227.227,0,0,1-.118-.031.1.1,0,0,1-.049-.082v-19.122c0-.061.072-.111.162-.111l1.669-.041v-20.825l-1.649-.179,0,0a.17.17,0,0,1-.092-.029.1.1,0,0,1-.054-.083v-18.981c0-.061.07-.109.162-.114l1.618-.058v-20.811l-1.656-.109,0,0a.271.271,0,0,1-.1-.029.1.1,0,0,1-.051-.083v-18.775c0-.061.07-.109.157-.114l1.669-.08v-20.779l-1.674-.131a.209.209,0,0,1-.09-.029.1.1,0,0,1-.056-.085v-19.231c0-.058.065-.107.15-.112l1.643-.1V-2169.3l-1.7-.24v0a.16.16,0,0,1-.08-.027.09.09,0,0,1-.058-.083v-18.909c0-.058.063-.109.152-.114l1.715-.126v-20.656l-1.713-.228v0a.483.483,0,0,1-.077-.022.111.111,0,0,1-.056-.087V-2224l-2.646-.2ZM-9346.7-2223.6v268.551h7.691V-2224.2Zm-43.713,236.868v31.683h43.381v-32.141Zm-3.025,31.683h2.691v-31.795c0-.061.075-.111.165-.111l1.686-.017v-20.648l-1.671.031h-.008a.221.221,0,0,1-.113-.031.1.1,0,0,1-.051-.085v-18.744c0-.063.07-.114.162-.114l1.681-.041v-20.425l-1.681-.216v0a.182.182,0,0,1-.088-.029.107.107,0,0,1-.053-.08v-18.655c0-.065.07-.111.157-.116l1.613-.058v-20.343l-1.679-.208v0a.206.206,0,0,1-.087-.029.1.1,0,0,1-.051-.085v-18.478c0-.058.067-.109.155-.114l1.649-.08V-2125.9l-1.608-.15v0a.192.192,0,0,1-.09-.027.1.1,0,0,1-.056-.085v-18.875c0-.058.065-.109.152-.114l1.613-.1v-20.341l-1.519-.2-.1.007h-.015a.21.21,0,0,1-.111-.029.1.1,0,0,1-.056-.085v-18.625c0-.058.063-.109.15-.111l1.725-.128v-20.292l-1.723-.211v0a.222.222,0,0,1-.082-.024.093.093,0,0,1-.058-.085v-13.969l-2.7-.23Zm-7.675-263.9v263.9h7.338v-264.527Zm-60.087,263.9h59.75v-168.345l-59.75-3.121Zm-116.062-164.932v164.932h115.729v-171.466Zm734.048,135.465,50.958.659.1-14.575-51.06-.955Zm-54.255-14.131v14.681l53.918-.55v-14.873Zm-47.795,12.857,46.717.518v-15.294l-46.717-.807Zm-1.918-15.541v15.532l1.582,0v-15.575Zm-133.5-.325v15.624l64.946-.628v-15.927Zm65.283,15,49.008.6v-15.658l-49.011-.87Zm-373.159-20.966v20.648l41.524-.441v-.434l-41.025.463h0a.241.241,0,0,1-.116-.031.1.1,0,0,1-.051-.082v-19.432c0-.061.072-.109.164-.111l41.033-.669v-.654Zm54.677-.911v20.987l43.269-.5v-.441l-42.527.451h0a.209.209,0,0,1-.118-.031.1.1,0,0,1-.049-.08v-19.766c0-.058.07-.109.165-.111l42.534-.7v-.579Zm-54.011,9.519v11.4l.463,0v-11.4Zm.8-.012v11.4l7.479-.082v-11.435Zm7.815-.121v11.435l.3,0v-11.435Zm.64-.012v11.437l.393,0v-11.44Zm.729-.012v11.442l7.236-.08v-11.474Zm7.573-.116v11.474l.3,0V-1999.3Zm.642-.01v11.476l.354,0v-11.476Zm.69-.012v11.481l7.334-.082v-11.51Zm7.67-.116v11.51l.286,0v-11.513Zm.623-.01v11.512l.419,0v-11.515Zm.756-.012v11.517l7.321-.082v-11.549Zm7.66-.119v11.549l.25,0v-11.551Zm.589-.01v11.554l.437,0v-11.556Zm.771-.01v11.554l3.9-.044v-11.571Zm17.957-.228v11.551l.431-.007v-11.551Zm.766-.01v11.551l7.788-.085v-11.592Zm8.13-.131v11.592h.347v-11.6Zm.684-.012v11.6l.393,0v-11.6Zm.729-.012v11.6l7.539-.082V-2000.1Zm7.881-.126v11.646l.28,0v-11.646Zm.617-.01v11.648l.422,0v-11.651Zm.761-.012v11.651l7.552-.08v-11.692Zm7.889-.126v11.694l.329,0v-11.7Zm.666-.012v11.7l.356,0v-11.7Zm.692-.012v11.7l7.724-.082V-2000.4Zm8.056,11.619.257,0v-11.745h-.257Zm.589-11.757v11.75l.373,0v-11.75Zm.705-.007v11.75l4.2-.048V-2000.5Zm656.956,9.228,39.792.632v-36l-39.792-1.24Zm-8.787-.138,8.455.133v-36.611l-8.455-.266Zm-42-.666,41.66.661v-36.749l-41.66-1.3Zm-393.032-1.563h.538v-342.723l-.538-.112Zm-69.017-.225,3.474.048v-39.017l-3.474-.1Zm-11.338-.165,11,.16v-39.068l-11-.3Zm-54.2-.773,53.863.768v-39.213l-53.863-1.485Zm417.666-4.053v-9.935l-45.846-.938v10.049l1.02-.012Zm-589.33-.984v.518l40.858-.632v-.548Zm0-7.06v6.829l.463-.007v-6.829Zm.8-.015v6.832l7.508-.121v-6.829Zm54.115,6.224v.569l42.362-.678v-.523Zm-46.271-6.35v6.829l.273,0v-6.829Zm.61-.01v6.829l.347,0v-6.832Zm.688-.012v6.832l7.256-.119v-6.832Zm7.592-.124v6.829l.306,0v-6.827Zm.643-.01v6.829l.375-.007v-6.827Zm.712-.01v6.827l7.334-.116v-6.829Zm7.67-.124v6.827h.267v-6.832Zm.6-.01v6.829l.44-.007v-6.832Zm.777-.015v6.832l7.333-.121v-6.829Zm7.67-.126v6.832l.24,0v-6.829Zm.579-.01v6.832l.437-.01v-6.829Zm.771-.012v6.829l3.9-.063v-6.827Zm440.654-3.794V-2001l10.343.182v-10.575Zm-422.7,3.411v6.965l.431-.007v-6.965Zm.766-.012v6.965l7.817-.116v-6.975Zm8.154-.131v6.975l.322,0v-6.975Zm.659-.01v6.972l.393,0v-6.975Zm.729-.012V-2001l7.539-.111v-6.989Zm412.055,6.968v-10.369l-36.572-.8v.55l34.355.77c.09,0,.162.051.162.114v9.165a.085.085,0,0,1-.051.08.211.211,0,0,1-.116.034h0l-34.346-.627v.526l1.744-.041Zm-404.174-7.1v6.989l.28,0v-6.989Zm.617-.01v6.989l.422,0v-6.992Zm.761-.015v6.992l7.552-.111v-7Zm7.889-.126v7l.329,0v-7Zm.666-.012v7l.356,0v-7Zm.692-.012v7.006l7.724-.116v-7.016Zm8.056-.133v7.018l.267,0v-7.018Zm.6-.01v7.021l.363,0v-7.018Zm.7-.007v7.018l4.2-.065v-7.023Zm381.219,6.73.592.007v-8.935l-.592-.015Zm-10.584-.2,10.248.189v-8.942l-10.248-.23Zm-156.622.01,5.574-.08v-10.713l-5.574-.128Zm155.691-.024.6.012v-8.988l-.6-.012Zm-.867-.017.525.01v-8.988l-.525-.015Zm-10.137-.182,9.8.177v-9l-9.8-.22Zm-138.779-10.563v10.7l58.353-.838v-10.8Zm103.869,10.643v-10.8l-2.367.019-42.811-.8v10.8l.625-.01Zm34.053-.1.519.01v-9.039l-.519-.012Zm-.9-.017.566.012v-9.041l-.566-.012Zm-9.312-.17,8.971.162v-9.044l-8.971-.2Zm-443.221-24.028v18.516l43.371-.775v-18.771Zm54.714-1.289v18.9l45.078-.8V-2028.7Zm537.345,18.691,1.209-.031-46.268-.993-31.577.514,30.4-.438Zm-44.87-1.25,50.958,1.1.1-14.572-51.06-1.391ZM-8897.468-2024v14.662l.53.012,53.388-.865v-14.87Zm-48.451,11.626,35.482.773c.092,0,.162.053.162.111v.036l5.759-.094-40.931-.836Zm.656-.235,46.717.955v-15.294l-46.717-1.24Zm-1.918-15.5v15.529l1.582-.031v-15.575Zm-128.066,15.2.322.007,58.589-.945,38.758.729-37.992-.829Zm-5.432-15.759v15.624l64.946-1.124v-15.929Zm65.283,14.5,49.008,1.066v-15.658l-49.011-1.337Zm216.837-9.9v-9.846l-45.846-1.386v10.032l1.017-.022Zm-590-22.95v20.4l41.524-.984v-.286l-41,.955h-.008a.207.207,0,0,1-.116-.029.1.1,0,0,1-.051-.082v-19.452c0-.061.07-.111.16-.116l41.016-1.274v-.424Zm750.7,18.984,39.792,1.233v-36.047l-39.792-1.834Zm-750.016-10.531v11.406l.4-.007v-11.408Zm.734-.019v11.408l7.532-.174v-11.423Zm476.824,1.114v9.984l10.369.274v-10.534Zm-468.955-1.313v11.423l.324-.007v-11.423Zm.661-.015v11.423l.37-.01V-2038.8Zm.707-.017v11.42l7.275-.165V-2039Zm432.474,10.4,34.782.921v-10.258l-36.541-1.156v.623l34.336,1.044c.09,0,.162.051.162.114v9.16a.1.1,0,0,1-.053.082.232.232,0,0,1-.119.034h-.007l-34.319-.954v.475l1.739-.085Zm-424.861-10.592v11.44l.262,0v-11.44Zm.6-.015v11.44l.39-.01v-11.44Zm.729-.019v11.442l7.324-.17v-11.459Zm7.656-.191v11.457l.254-.007v-11.457Zm.591-.017v11.459l.419-.01v-11.459Zm.756-.019v11.459l7.346-.172v-11.474Zm26.092-9.436v20.806l43.247-1.037v-.281l-42.568.991h-.008a.228.228,0,0,1-.116-.031.1.1,0,0,1-.048-.082v-19.766c0-.063.07-.109.157-.112l42.583-1.337v-.431Zm-18.409,9.242v11.474l.249-.007v-11.471Zm.586-.015V-2028l.424,0v-11.479Zm.756-.017v11.479l3.894-.092v-11.483Zm704.285,11.188,8.455.262V-2064.7l-8.455-.39Zm-266.937.2.557.017v-8.932l-.557-.019Zm-10.626-.293,10.289.288v-8.94l-10.289-.31Zm235.564-1.216,41.66,1.294V-2065.1l-41.66-1.921Zm-236.471,1.192.569.017v-8.966l-.569-.017Zm-.887-.024.55.015v-8.969l-.55-.017Zm-10.15-.281,9.813.271v-8.969l-9.813-.3Zm-396.867-11.353v11.619l.434-.01v-11.619Zm.77-.019v11.619l7.8-.179V-2040.3Zm8.136-.218v11.648l.324-.007v-11.651Zm.659-.019v11.653l.419-.012v-11.653Zm.753-.022v11.655l7.545-.174v-11.682Zm385.711,11.607.5.015v-9l-.5-.017Zm-.92-.024.583.015v-9l-.583-.019Zm-9.276-.259,8.944.25v-9l-8.944-.269Zm-367.634-11.534v11.685l.271-.007v-11.682Zm234.02,11.68,5.574-.121v-10.6l-5.574-.208Zm-233.409-11.694v11.684l.453-.01v-11.687Zm.79-.022v11.689l7.544-.177v-11.716Zm238.527,1.005v10.58l58.353-1.284v-10.723Zm-230.651-1.219v11.718l.3-.007v-11.718Zm334.519,11.709v-10.65l-2.362.058-42.813-1.328v10.718l.625-.015Zm-333.886-11.726v11.721l.453-.012v-11.721Zm.79-.022v11.723l7.616-.179v-11.747Zm7.953-.213v11.75l.293,0v-11.752Zm.625-.017v11.755l.443-.012v-11.752Zm.782-.019v11.755l4.146-.094v-11.772Zm144.068,8.024,3.474.094V-2072l-3.474-.143Zm-11.338-.312,11,.3v-39.063l-11-.443Zm-54.2-1.492,53.863,1.483v-39.208l-53.863-2.18Zm417.887.751,2.685-.087-47.751-1.468-49.517,1.158.812.027,47.527-1.025Zm-44.875-1.776,50.958,1.568.1-14.575-51.06-1.865Zm-54.255-13.426v14.664l.354.012,53.564-1.255v-14.87Zm157.017-54.352v66.594l51.481-1.117v-67.531Zm-206.729,64.523v.029l36.715,1.163c.09,0,.157.053.157.114v.165l7.915-.211-43.058-1.3Zm1.918-.257,46.717,1.4v-15.292l-46.717-1.691Zm-442.6.172v.46l40.837-1.032v-.608Zm440.687-15.67v15.529l1.582-.034V-2055Zm-440.687,8.537v6.9l.4-.012v-6.9Zm.734-.019v6.9l7.522-.218v-6.919Zm7.859-.245v6.922l.334-.012v-6.919Zm.671-.022v6.922l.356-.012v-6.922Zm.692-.022v6.922l7.29-.208v-6.938Zm300.764,6.783,2.224.085,58.609-1.437,42.937,1.333,3.12-.075-45.313-1.432Zm-293.137-7.021v6.941l.237-.007v-6.941Zm.574-.017V-2040l.419-.012v-6.943Zm.758-.027v6.943l7.324-.211v-6.96Zm288.272-8.7v15.626l64.946-1.611v-15.929Zm65.283,14.017,49.008,1.55v-15.662l-49.011-1.817Zm-345.9-5.553v6.96l.239-.007v-6.96Zm.576-.015v6.958l.434-.015v-6.958Zm.771-.024v6.96l7.367-.213v-6.977Zm26.936,6.422v.523l42.4-1.144v-.545Zm-19.236-6.665v6.98l.232-.007v-6.98Zm.569-.015v6.977l.356-.01v-6.98Zm.693-.024v6.982l3.956-.114v-6.992Zm17.974-.468v6.941l.434-.012v-6.941Zm.77-.024v6.946l7.833-.216v-6.977Zm8.17-.257v6.977l.29-.007v-6.98Zm.625-.017v6.977l.385-.012v-6.977Zm.722-.024v6.98l7.576-.206v-7.011Zm7.912-.247v7.011l.306-.01v-7.011Zm.64-.019v7.014l.424-.012v-7.014Zm.761-.024v7.016l7.576-.208v-7.048Zm7.913-.25v7.047l.319-.01v-7.047Zm.658-.022v7.05l.366-.01v-7.05Zm.7-.017v7.047l7.646-.211v-7.079Zm7.982-.252v7.081l.286-.007v-7.084Zm.623-.02v7.084l.445-.01v-7.089Zm.784-.024v7.089l4.146-.116v-7.1Zm30.841-64.653v71.083l47.354-1.284v-72.176Zm-125.179,66.558.381.051,41.682-1.3v-.024Zm-1.286-18.618v18.432l43.349-1.308v-18.669Zm56.215,16.961.15.02,43.4-1.286v-.029Zm-1.482-18.935v18.751l45.037-1.342V-2069.5Zm537.088,18.5v-9.7l-45.846-1.771v9.863l1.013-.029Zm-111.66-14.311v9.729l10.265.371v-10.48Zm-.342,9.717v-10.163l-36.62-1.507v.627l34.316,1.366c.09,0,.16.053.16.114v9.189a.106.106,0,0,1-.056.085.243.243,0,0,1-.116.029h-.008l-34.3-1.279v.363l1.739-.082.021,0Zm-3.014-.514.531.019v-8.961l-.531-.022Zm-10.667-.4,10.33.383v-8.959l-10.33-.414Zm-.836-.034.5.019v-8.99l-.5-.022Zm-.942-.034.608.024v-9l-.608-.019Zm-10.1-.375,9.767.363v-9l-9.767-.39Zm-.869-.031.533.017v-9.022l-.533-.022Zm-.981-.039.64.024v-9.024l-.64-.024Zm-9.208-.342,8.869.329v-9.027l-8.869-.354Zm-133.614-.157,5.574-.16v-10.473l-5.574-.286Zm5.908-10.621v10.449l58.353-1.72v-10.667Zm103.835,10.352v-10.57l-2.311.065h-.02l-42.813-1.785v10.66l.625-.019Zm172.707-3.132,3.2-.1-48.252-2-51.087,1.526,2.372.119,47.532-1.328Zm-44.868-2.326,50.958,2.11.1-14.572-51.06-2.406Zm-54.255-13.075v14.667l.179.01,53.739-1.6V-2076.5Zm259.616,9.792,39.792,1.836v-36l-39.792-2.435Zm-309.329-1.044v.077l36.8,1.517c.087,0,.162.053.162.114v.322l8.853-.325-44.09-1.742Zm1.918-.254,46.717,1.841v-15.292l-46.717-2.132Zm298.624.894,8.455.393v-36.609l-8.455-.516Zm-42-1.936,41.66,1.921v-36.74l-41.66-2.549Zm-258.543-14.463v15.532l1.582-.031v-15.575Zm-441.428-4.8v20.314l41.578-1.483v-.264l-41.019,1.517h-.012a.209.209,0,0,1-.111-.031.094.094,0,0,1-.056-.083v-19.415c0-.061.07-.109.157-.114l41.04-1.8v-.479Zm.72,8.455v11.394l.458-.014v-11.4Zm.795-.029v11.394l7.5-.279v-11.4Zm308.968,11.176,3.2.167,58.564-1.948h.022l42.968,1.8,3.946-.116-46.144-1.916Zm-301.126-11.476v11.4l.313-.01V-2078.4Zm.651-.027v11.408l.4-.017v-11.406Zm.734-.029v11.408l7.241-.264v-11.423Zm297.188-4.237v15.626l64.946-2.1v-15.927Zm65.283,13.531,49.008,2.035v-15.66l-49.011-2.3Zm-354.893-9.584v11.42l.264-.01v-11.42Zm.6-.024v11.423l.373-.014v-11.42Zm.71-.027v11.423l7.279-.269v-11.433Zm7.621-.293v11.435l.3-.01v-11.437Zm.635-.024v11.435l.434-.015v-11.437Zm.771-.029v11.438l7.321-.274v-11.447Zm7.66-.3v11.449l.274-.007v-11.452Zm.608-.024V-2068l.432-.017v-11.449Zm.763-.024v11.449l3.887-.145v-11.457Zm17.054-9.49v20.794l43.254-1.553v-.182l-42.5,1.454h-.008a.267.267,0,0,1-.118-.029.106.106,0,0,1-.049-.085v-19.783c0-.058.065-.107.157-.112l42.521-1.817v-.514Zm.908,8.7v11.583l.4-.014v-11.583Zm.736-.027v11.583l7.8-.264v-11.626Zm8.143-.322v11.629l.33-.012v-11.629Zm.669-.027v11.631l.378-.012v-11.629Zm.712-.024v11.629l7.612-.259v-11.67Zm7.949-.312v11.67l.234,0v-11.675Zm.571-.022v11.672l.378-.012v-11.675Zm.715-.029v11.677l7.607-.259v-11.719Zm7.944-.31v11.716l.295-.012v-11.716Zm.632-.024v11.716l.424-.012v-11.721Zm.761-.031v11.726l7.648-.264V-2081.7Zm7.985-.315v11.764l.3-.01v-11.764Zm.64-.022v11.767l.358-.015v-11.767Zm.69-.029V-2070l4.2-.146v-11.789Zm144.121,9.4,3.474.14v-39.039l-3.474-.187Zm-11.338-.46,11,.446v-39.089l-11-.589Zm-54.2-2.19,53.863,2.178v-39.24l-53.863-2.89Zm372.854-1.715,44.8,2.113v-9.63l-45.839-2.323v9.875l1.013-.034Zm-544.519-2.12v.567l40.858-1.572v-.6Zm0-7v6.774l.458-.02v-6.776Zm.795-.034v6.779l7.485-.3v-6.812Zm7.822-.344v6.813l.332-.014v-6.812Zm.671-.031v6.817l.337-.012v-6.817Zm.674-.024v6.817l7.275-.286v-6.854Zm7.612-.337v6.854l.31-.012v-6.854Zm.646-.029v6.856l.356-.014v-6.859Zm.693-.031v6.861l7.316-.286V-2087Zm458.717-3.338v9.6l10.272.468V-2090.4Zm-451.064,3v6.9l.267-.012v-6.895Zm.6-.027v6.9l.427-.015v-6.9Zm.764-.034v6.9l7.333-.288v-6.939Zm414.54,5.054,34.826,1.589v-10.049l-36.587-1.853v.625l34.319,1.718c.087,0,.157.053.157.114v9.126a.1.1,0,0,1-.056.082.2.2,0,0,1-.116.031l-.008,0-34.3-1.584v.293l1.739-.087Zm-406.868-5.39v6.938l.3-.012v-6.941Zm19.333,6.309v.608l42.346-1.66v-.6Zm-18.705-6.338v6.941l.349-.015v-6.938Zm.686-.027v6.943l3.944-.155v-6.965Zm437.386,6.568.546.024v-8.9l-.546-.029Zm-10.574-.489,10.238.472v-8.9l-10.238-.511Zm-408.792-6.854v6.909l.4-.012v-6.912Zm.736-.029v6.912l7.818-.3v-6.943Zm407.11,6.837.61.029v-8.937l-.61-.031Zm-.9-.041.564.029v-8.947l-.564-.029Zm-10.112-.468,9.775.453v-8.944l-9.775-.492Zm-387.941-6.677v6.943l.317-.012v-6.946Zm.656-.029v6.946l.378-.015v-6.943Zm.712-.027v6.946l7.571-.293v-6.98Zm385.689,6.694.545.024v-8.983l-.545-.029Zm-.862-.041.523.024v-8.988l-.523-.029Zm-9.312-.429,8.976.414v-8.99l-8.976-.453Zm-367.6-6.563v6.977l.295-.012v-6.98Zm.632-.029v6.979l.354-.012v-6.98Zm.69-.027v6.982l7.607-.3v-7.011Zm7.944-.342v7.011l.295-.012v-7.011Zm.632-.027v7.016l.429-.015v-7.018Zm.769-.031v7.019l7.641-.3v-7.047Zm7.978-.344v7.05l.293-.012v-7.05Zm.63-.022v7.045l.368-.012v-7.05Zm.7-.031v7.052l4.2-.165v-7.067Zm214.013,6.965,5.574-.206v-10.333l-5.574-.312Zm5.908-10.521v10.306l58.353-2.156v-10.568Zm59.331,8.116,44.5,2.091v-10.488l-2.233.09h-.027l-42.876-2.229v10.556l.62-.02Zm170.991-1.495,46.22,2.338,3.881-.175-48.936-2.481-51.658,1.9,2.943.184,47.53-1.766Zm1.352-.538,50.958,2.585.1-14.575-51.06-2.881Zm-54.255-12.7v14.669l.118.007,53.8-1.977v-14.87Zm-491.753,13.254.455.056,41.636-1.839Zm-1.2-18.431v18.252l43.395-1.836v-18.529Zm54.754-2.643v18.55l45.062-1.911v-18.826Zm388.49,15.076v.223l36.766,1.863c.09,0,.157.056.157.114v.344l9.263-.342-44.451-2.239Zm1.918-.254,46.717,2.353v-15.294l-46.717-2.636Zm-1.918-15.5v15.532l1.582-.036v-15.573Zm-131.3,14.691,3.568.2,58.6-2.423h.021l42.992,2.234,4.618-.189-46.881-2.4Zm-2.194-15.764V-2094l64.946-2.665v-15.929Zm65.283,12.964,49.008,2.51v-15.657l-49.011-2.779Zm377.544-5.08,39.792,2.435v-36.03l-39.792-3.038Zm-203.086-9.766,39.763,2.52c.085,0,.155.053.155.114v8.7a.1.1,0,0,1-.056.083.12.12,0,0,1-.046.019l2.541.143v-9.567l-45.824-2.636v9.715l1.013-.041h.026l35.4,2-33-1.938c-.085-.007-.152-.056-.152-.114v-8.884a.1.1,0,0,1,.056-.082.2.2,0,0,1,.115-.032Zm39.064,11.176.514.031v-8.469l-.514-.034Zm-6.435-.378,6.1.361v-8.477l-6.1-.385Zm-.8-.043.46.027v-8.506l-.46-.029Zm-.908-.056.571.034v-8.508l-.571-.036Zm-8.993-.526,8.651.506v-8.513l-8.651-.548Zm-.795-.048.458.029v-8.557l-.458-.027Zm-.911-.051.579.031v-8.557l-.579-.039Zm-9.242-.545,8.905.523v-8.564l-8.905-.562Zm183.317-.3,8.455.516V-2138.4l-8.455-.644Zm-184.144.252.484.027v-8.6l-.484-.029Zm-.942-.056.6.036v-8.608l-.6-.041Zm-9.063-.531,8.727.511v-8.615l-8.727-.55Zm152.15-2.234,41.66,2.549v-36.774l-41.66-3.183Zm-51.813-65.739v66.667l51.481-2.054v-67.587Zm-648.169,44.688v20.353l41.59-2.023v-.371l-40.994,2.013h-.015a.232.232,0,0,1-.116-.031.1.1,0,0,1-.051-.083V-2125.5c0-.061.07-.109.152-.114l41.023-2.241v-.375Zm.753,8.288v11.447l.429-.019v-11.449Zm.766-.039v11.449l7.477-.368v-11.457Zm476.852,1.359v9.41l10.255.579v-10.469Zm-469.041-1.751v11.461l.325-.019v-11.457Zm.664-.031v11.457l.432-.022v-11.457Zm.764-.041v11.459l7.236-.354v-11.467Zm430.683-.346,34.321,2.067c.085,0,.155.051.155.114v9.138a.1.1,0,0,1-.056.085.2.2,0,0,1-.1.029l2.274.128v-9.955l-36.594-2.217Zm-423.109-.034v11.469l.269-.012V-2118.5Zm.605-.029v11.469l.365-.017v-11.471Zm.7-.034v11.469l7.319-.361v-11.479Zm423.567,9.693,28.578,1.611-30.344-1.73v.2l1.739-.085Zm31.814,1.57.558.029v-8.91l-.558-.036Zm-10.595-.606,10.258.586v-8.918l-10.258-.618Zm-437.134-11.042v11.476l.267-.012v-11.479Zm.6-.031v11.479l.429-.022v-11.479Zm.768-.039v11.481l7.357-.361v-11.488Zm7.694-.388v11.491l.3-.015v-11.491Zm427.175,11.449.56.031v-8.947l-.56-.036Zm-426.535-11.479v11.488l.344-.017v-11.491ZM-8926-2108l.571.031v-8.954l-.571-.031Zm-424.941-11.461v11.488l3.913-.191v-11.5Zm414.821,10.883,9.783.557v-8.952l-9.783-.589Zm-397.725-20.363v20.757l43.237-2.1v-.378l-42.521,2.021h-.012a.215.215,0,0,1-.118-.029.1.1,0,0,1-.049-.083v-19.837c0-.056.063-.109.155-.114l42.544-2.229v-.468Zm396.857,20.312.531.031v-8.986l-.531-.034Zm-.9-.051.567.031v-8.988l-.567-.031Zm-9.288-.531,8.951.511v-8.99l-8.951-.54Zm-385.791-11.265v11.6l.393-.019v-11.6Zm.729-.039v11.6l7.825-.371v-11.629Zm8.162-.414v11.626l.3-.012v-11.631Zm.64-.034v11.631l.409-.02v-11.634Zm.744-.039v11.636l7.547-.361v-11.66Zm478.138,8.632,46.215,2.66,4.1-.187-49.156-2.98-51.961,2.277,3.246.223,47.53-1.994Zm-470.257-9.034v11.663l.3-.015v-11.663Zm.642-.031v11.663l.422-.02v-11.665Zm.759-.041v11.667l7.585-.359v-11.694Zm232.621,11.634,5.574-.257v-10.34l-5.574-.325Zm237.582-3.251,50.958,3.089.1-14.572-51.06-3.385Zm-231.674-7.331v10.311l58.353-2.665v-10.444Zm-230.607-1.454v11.694l.306-.017v-11.694Zm.642-.031v11.692l.376-.015v-11.7Zm.713-.039v11.7l7.616-.366v-11.721Zm290.551-.5,37.5,2.41c.087,0,.152.053.152.112v9.349l4.921.279v-10.429l-2.355.109h-.026l-42.794-2.614v10.437l.62-.027h.022l9.542.538-7.6-.465c-.09,0-.155-.053-.155-.114v-9.47a.093.093,0,0,1,.056-.085.212.212,0,0,1,.112-.03Zm-282.6.094v11.728l.3-.017v-11.728Zm.64-.036v11.73l.458-.022v-11.73Zm318.659,11.66.61.039v-9.129l-.61-.041Zm-317.864-11.7v11.73l4.143-.2v-11.745Zm397.284-2.99v14.676l.082,0,53.836-2.362v-14.868Zm-90.354,14.02,10.595.652v-9.136l-10.595-.681Zm-.869-.051.535.029v-9.165l-.535-.036Zm-.919-.058.582.036v-9.17l-.582-.036Zm-161.077-.175,3.474.187v-38.995l-3.474-.235Zm150.466-.475,10.275.63v-9.175l-10.275-.656Zm-161.8-.133,11,.591v-39.046l-11-.737Zm160.869.078.6.036v-9.206l-.6-.036Zm-.942-.061.6.039v-9.208l-.6-.039Zm-11.336-.693,11,.674v-9.211l-11-.705Zm-202.791-2.231,53.863,2.89v-39.2l-53.863-3.6Zm-47.689-70v71.119l47.354-2.376v-72.1Zm316.733,65.637v.262l36.775,2.229c.087.007.155.053.155.111v.441l9.731-.453-44.926-2.689Zm1.918-.317,46.717,2.8v-15.292l-46.717-3.084Zm-442.6,1.5v.54l40.837-2.052v-.475Zm0-7.021v6.791l.429-.02v-6.793Zm.766-.041v6.8l7.522-.368v-6.842Zm7.859-.429v6.842l.276-.012v-6.846Zm.615-.036v6.849l.432-.022v-6.849Zm.764-.041v6.851l7.2-.349v-6.895Zm7.539-.412v6.9l.319-.015v-6.9Zm.656-.034v6.9l.349-.017v-6.9Zm.686-.039v6.9l7.316-.354v-6.951Zm421.8-8.889v15.529l1.582-.092v-15.573Zm-414.148,8.469v6.953l.267-.015v-6.948Zm.6-.029v6.951l.429-.017v-6.96Zm.768-.046v6.963l7.326-.356v-7.006Zm7.663-.417v7.006l.3-.014v-7.006Zm.635-.034v7.009l.38-.019v-7.011Zm.717-.041v7.014l3.913-.189v-7.038Zm272.251,6.544,3.745.218,58.665-2.813h.026l42.871,2.621,5.039-.242-47.222-2.817Zm-254.279-.373v.538l42.362-2.163v-.429Zm252.293-15.386V-2121l64.946-3.123v-15.929Zm65.283,12.508,49.008,2.924v-15.655l-9.734-.635h0l-.013,0-39.262-2.561Zm-317.576-4.363v7.014l.393-.017v-7.018Zm.729-.041v7.023l7.879-.385v-7.048Zm8.211-.429v7.05l.3-.014v-7.05Zm.64-.034v7.052l.337-.014v-7.055Zm.671-.031v7.052l7.562-.366v-7.086Zm7.893-.417v7.086l.317-.017v-7.086Zm.654-.036v7.089l.407-.017v-7.091Zm.739-.036v7.091l7.6-.371v-7.12Zm7.937-.417v7.123l.317-.015v-7.125Zm.656-.034v7.125l.366-.02v-7.125Zm.7-.039v7.127l7.631-.371v-7.156Zm7.968-.417v7.156l.288-.012v-7.159Zm.625-.031v7.159l.424-.019v-7.164Zm.759-.041v7.164l4.179-.2v-7.183Zm451.425,2.287,44.8,2.97v-9.478l-45.846-3.128v9.681l1.01-.046Zm-545.613,2.069.191.02,19.139-1.076Zm-1.4-18.8v18.65l43.342-2.369v-18.938Zm56.247,15.764.113.01,11.176-.639Zm-1.541-19.146v19l45.057-2.5v-19.243Zm425.411,5.761v9.177l10.291.678V-2143.1Zm-36.926-2.687,34.326,2.469c.085,0,.15.053.15.111v9.121l2.112.141v-9.8l-36.589-2.585Zm33.614,11.646.523.034v-9l-.523-.039Zm-10.655-.7,10.318.681v-9l-10.318-.744Zm-.887-.061.548.039v-9.063l-.548-.041Zm-.862-.056.525.039v-9.073l-.525-.036Zm-10.144-.669,9.807.647v-9.073l-9.807-.7Zm91.557-3,46.213,3.154,4.351-.218-49.405-3.44-52.106,2.694,3.392.232,47.525-2.423Zm-92.432,2.939.533.036v-9.136l-.533-.039Zm-.889-.058.553.036v-9.138l-.553-.041Zm-.337-.022v-9.146l-8.966-.644v9.463l1.729-.146.039,0Zm95-3.578,50.958,3.547.1-14.572-51.06-3.845Zm205.361.2,39.792,3.04V-2171.6l-39.792-3.624Zm-259.616-12.094v14.672l.065,0,53.853-2.784v-14.87Zm-183.327,13.848,5.574-.3v-10.209l-5.574-.424Zm5.908-10.483v10.17l58.353-3.077v-10.369Zm61.3-2.473,37.5,2.742c.09,0,.15.051.15.114v9.24l4.942.325v-10.354l-2.433.121h-.031l-42.733-2.992v10.352l.618-.034h.026l1.8.116a.082.082,0,0,1-.018-.043v-9.475a.1.1,0,0,1,.056-.085.222.222,0,0,1,.107-.028Zm36.737,12.036.571.039v-9.116l-.642-.051Zm-10.907-.761,10.57.737-.07-9.126-10.5-.768Zm-.935-.065.6.041v-9.16l-.6-.041Zm-.919-.065.582.041v-9.16l-.582-.046Zm342.971-.613,8.455.644v-36.621l-8.455-.773Zm-353.6-.128,10.289.719v-9.165l-10.289-.753Zm311.6-3.084,41.66,3.186v-36.749l-41.66-3.8Zm-312.53,3.019.6.044v-9.2l-.6-.046Zm-.956-.065.62.041v-9.2l-.62-.044Zm-11.31-.79,10.973.766v-9.206l-10.973-.8Zm66.253-6.076v.38l36.775,2.6c.087.007.15.056.15.114v.523l10.034-.54-45.226-3.178Zm1.918-.32,46.717,3.288v-15.292l-46.717-3.573Zm-443.346-18.86v20.309l41.578-2.549v-.167l-40.97,2.5-.015,0a.219.219,0,0,1-.116-.031.1.1,0,0,1-.051-.085v-19.473c0-.061.063-.109.15-.114l41-2.725v-.472Zm.764,8.443v11.416l8.273-.506v-11.435Zm8.609-.547v11.437l.24-.015v-11.44Zm.579-.039v11.44l.437-.029v-11.437Zm.773-.049v11.442l7.186-.441v-11.459Zm430.7-4.387v15.529l1.582-.092v-15.573Zm-423.185,3.908v11.461l.329-.019v-11.462Zm.666-.041v11.461l.419-.024v-11.464Zm.756-.049v11.464l7.343-.448v-11.483Zm7.68-.489v11.486l.223-.015v-11.486Zm.56-.034v11.486l.4-.024v-11.488Zm.736-.046v11.486l7.321-.443v-11.51Zm280.856,11.033,4.208.32,58.561-3.29h.029l42.873,3,5.315-.269-47.442-3.3Zm-273.2-11.522v11.51l.3-.019v-11.51Zm.635-.041v11.512l.438-.029v-11.51Zm.775-.048v11.512l3.869-.238v-11.52Zm270.221-4.157v15.628l64.946-3.612v-15.929Zm65.283,12.019,49.008,3.406v-15.655l-49.011-3.68Zm-318.476-17.671v20.643l43.262-2.636v-.146l-42.534,2.583h-.01a.2.2,0,0,1-.116-.031.1.1,0,0,1-.056-.083v-19.759c0-.058.065-.107.152-.114l42.563-2.885v-.494Zm.885,8.646v11.558l.436-.024v-11.563Zm.768-.049v11.561l7.84-.475V-2161.2Zm8.172-.521v11.585l.252-.014v-11.585Zm.584-.036v11.587l.434-.027v-11.587Zm.768-.049v11.59l7.576-.46v-11.609Zm7.918-.5v11.609l.266-.014v-11.612Zm.6-.036v11.609l.41-.024v-11.612Zm.746-.048v11.614l7.562-.458v-11.636Zm472.493-.7,39.766,2.948c.085.007.15.056.15.114v8.8l2.461.187v-9.332l-45.89-3.552v9.565l1.054-.058h.031l2.239.17v-8.734a.1.1,0,0,1,.056-.085.208.208,0,0,1,.106-.028Zm-309.751,11.634,3.474.233v-39.01l-3.474-.281Zm348.782-8.271v8.436l.545.044v-8.615Zm-503.624-3.166v11.634l.308-.019v-11.636Zm.645-.041v11.634l.4-.022v-11.638Zm496.586,11.161,6.057.458v-8.4l-6.057-.5Zm-495.847-11.207v11.636l7.595-.46v-11.66Zm142.12,10.769,11,.734v-39.063l-11-.891Zm352.925.378.468.036v-8.668l-.468-.034Zm-487.113-11.65v11.66l.368-.022V-2163Zm486.19,3.135v8.448l.589.044v-8.615Zm-485.485-3.178v11.66l.385-.024v-11.663Zm.722-.046v11.663l4.177-.254v-11.675Zm475.81,11,8.612.649v-8.395l-8.612-.7Zm-69.467.38.392-.022v-8.438l-.392-.068Zm.731-8.436v8.4l11.844-.632v-8.443Zm-328.513,4.794,53.863,3.6v-39.225l-53.863-4.356Zm396.441,3.2.465.036v-8.656l-.465-.031Zm-.962-8.54v8.47l.628.044v-8.613Zm-9.242,7.774,8.905.669v-8.441l-8.905-.7Zm-45.544-8.084v8.605l.688-.036v-8.6Zm1.025,8.55.419-.022v-8.494l-.419-.053Zm.753-8.489v8.448l11.565-.613v-8.479Zm42.966,7.961.463.036v-8.646l-.463-.031Zm-.908-8.562v8.494l.566.044v-8.608Zm-9.093,7.811,8.756.656v-8.443l-8.756-.7Zm-21.06-8.026v8.632l.7-.036v-8.635Zm1.034,8.576.373-.017v-8.489l-.373-.058Zm.715-8.479v8.443l12.431-.659v-8.491Zm-487.213,1.248c-.3.017-.744.048-1.306.085l-4.664.293c-3.856.242-9,.567-14.144.889-9.562.6-19.119,1.195-20.42,1.274v.492l40.814-2.6v-.453C-9347.108-2160.408-9347.2-2160.4-9347.312-2160.4Zm-40.533-4.569v6.883c.1-.007.237-.017.414-.027v-6.885Zm.751-.053v6.89c1.356-.087,4.094-.257,7.522-.472v-6.917Zm7.858-.518v6.919l.284-.019v-6.919Zm.625-.044v6.922c.126-.007.255-.017.391-.024v-6.924Zm.728-.051v6.929c2.224-.143,4.673-.293,7.186-.451v-6.955Zm467.633-3.186v8.971l10.286.785v-10.371Zm-460.115,2.687v6.956l.329-.022v-6.951Zm.666-.041v6.958l.4-.027v-6.96Zm.734-.051v6.96l7.3-.456v-6.989Zm566.908,6.793.136-.034-5.366-.4Zm-559.271-7.3v6.99l.289-.02v-6.987Zm.623-.041v6.989c.131-.01.267-.017.4-.022v-6.994Zm.736-.051v7c2.747-.174,5.286-.334,7.387-.465v-7.021Zm412.787-5.114,34.39,2.735c.087.007.147.058.147.114v9.056l2.057.157v-9.705l-36.594-2.929Zm136.945,11.893.138-.027-6.646-.494Zm-103.409-8.831v8.768l.667.051v-8.9Zm69.087,5.219,46.213,3.576,4.508-.225-49.562-3.993-52.438,3.021,3.729.317,47.521-2.7Zm-79.645,2.742,10.224.78v-8.743l-10.224-.821Zm-428.047-6.418v7.021c.085,0,.162-.012.242-.017v-7.021Zm.574-.041v7.023c.123-.007.24-.014.352-.024v-7.023Zm.692-.046v7.023c2.077-.128,3.509-.221,3.952-.25v-7.038Zm507.77,2.907,50.958,4.1.1-14.572-51.06-4.4Zm-489.773,3.07v.56l42.377-2.684v-.506Zm407.886.455.562.046v-8.964l-.562-.046Zm-.9-8.91v8.843l.569.046v-8.942Zm-10.142,8.07,9.8.749v-8.823l-9.8-.758Zm38.676-14.27v14.679l.026,0,53.892-3.1v-14.87Zm-435.519,7.474v6.951l.436-.027v-6.953Zm.768-.053v6.958l7.84-.484v-7Zm395.234,6.783.509.039v-9l-.509-.039Zm-.933-8.915v8.845l.592.044v-8.966Zm-.339,8.818v-8.821l-8.925-.732v9.155l1.729-.15.041,0Zm-385.791-7.241v7l.252-.015v-7Zm.584-.039v7.006l.361-.022v-7.006Zm.7-.046v7.009l7.615-.472v-7.052Zm7.949-.54v7.06l.276-.02v-7.06Zm.615-.041v7.06l.437-.029v-7.06Zm.772-.053v7.064l7.562-.47v-7.105Zm7.9-.535v7.111l.347-.022v-7.111Zm.686-.046v7.113l.358-.022v-7.115Zm.7-.044v7.115l7.678-.48v-7.159Zm223.353,6.711,5.574-.339v-10.076l-5.574-.456Zm-215.338-7.258v7.164l.257-.017v-7.164Zm.594-.039v7.166l.416-.027v-7.166Zm.753-.051v7.169l4.177-.259v-7.193Zm219.9-3.043v10.032l3.225-.194-.007-.017v-9.325c0-.058.067-.109.155-.114l50.5-3.273a.241.241,0,0,1,.128.029.094.094,0,0,1,.054.085v9.548l0,0,4.3-.259v-10.258Zm61.306-2.89,37.49,2.9c.09.007.15.058.15.116v9.3l4.913.368v-10.2l-2.369.124h-.034L-9016.2-2178v10.24l.615-.039.029,0,1.78.133v-9.368a.1.1,0,0,1,.056-.085.236.236,0,0,1,.118-.03Zm-57.751,3.493v9.094l.525-.029v-9.1Zm.862-.058v9.1l8.14-.492v-9.141Zm93.563,8.813.63.049v-9.177l-.63-.049Zm-10.9-.819,10.563.792v-9.179l-10.562-.819Zm-74.187-8.542v9.136l.671-.039v-9.143Zm1.008-.07v9.148l.533-.034v-9.146Zm.867-.053v9.148l11.4-.69v-9.2Zm71.418,8.6.557.041v-9.206l-.557-.044Zm-400.6-.09.535.073,41.735-2.813v-.124Zm399.7.022.563.041v-9.208l-.562-.041Zm-10.645-.8,10.308.77v-9.211l-10.308-.8Zm-48.129-8.5v9.2l.651-.043v-9.2Zm.988-.068V-2166l.471-.029v-9.2Zm-343.033-9.211v18.4l43.388-2.939v-18.664Zm343.84,9.163v9.208l11.755-.712v-9.262Zm45.425,8.54.572.046v-9.238l-.572-.043Zm-.964-.07.628.049v-9.24l-.628-.049Zm-32.374-9.252v9.259l.705-.046v-9.262Zm21.058,8.4,10.982.821v-9.238l-10.982-.853Zm-20.016-8.474v9.269l.509-.034v-9.269Zm.848-.053v9.267l11.438-.69v-9.32Zm85.421,2.961v.465l36.778,2.946c.092.007.152.058.152.114v.63l10.238-.611-45.435-3.646Zm-387.582,3.588.732.1,43.421-2.939v-.133Zm389.5-3.905,46.717,3.75v-15.292l-46.717-4.036Zm-390.447-14.941v18.679l45.1-3.036v-18.96Zm589.919-48.584v26.107l5.2.581c.083.01.141.056.141.112v39.431l51.481-2.975v-67.464Zm107.939,61.6,39.792,3.622v-36.015l-39.792-4.223Zm-309.329-13.511v15.529l1.582-.1V-2189.1Zm-132.1,14.119,4.368.356,58.582-3.75a.09.09,0,0,1,.036,0l42.884,3.472,5.485-.291-47.646-3.884Zm-1.4-15.764v15.629l64.946-4.179v-15.929Zm65.283,11.452,49.008,4v-15.66l-49.011-4.264Zm368.757,2.9,8.455.771V-2212.1l-8.455-.9Zm-194.3-11.982,39.768,3.472c.085.007.148.053.148.114v8.673l2.461.211v-9.279l-45.89-4.063v9.545l1.049-.065h.039l2.236.194v-8.688a.106.106,0,0,1,.058-.087.259.259,0,0,1,.117-.027Zm39.044,3.808v8.378l.532.043v-8.5Zm-6.449,7.818,6.107.528v-8.346l-6.107-.545Zm119.7-3.467,41.66,3.792v-36.749l-41.66-4.419Zm-120.437,3.406.393.031v-8.552l-.393-.036Zm-.947-8.45v8.365l.61.053v-8.513Zm-8.961,7.6,8.624.744v-8.332l-8.624-.768Zm-69.46.649.392-.024v-8.518l-.392-.094Zm.727-8.511v8.467l11.937-.729v-8.46Zm67.922,7.791.47.041v-8.566l-.47-.041Zm-.936-8.5v8.414l.6.056v-8.535Zm-54.713-.308v8.729l.625-.039v-8.726Zm45.463,7.925,8.913.768v-8.387l-8.913-.787Zm-44.507.749.407-.027v-8.576l-.407-.085Zm.742-8.571v8.523l11.551-.7v-8.583Zm42.958,7.752.465.043v-8.579l-.465-.039Zm-31.068-8.722v8.765l.679-.041v-8.765Zm1.018,8.7.393-.024v-8.627l-.393-.073Zm29.108-8.5v8.438l.6.051v-8.547Zm-28.379-.126v8.581l12.44-.761v-8.63Zm19.32,7.784,8.725.749v-8.4l-8.725-.775Zm-547.745-25.649v20.263l41.5-3.07v-.155l-41.011,3.048h-.02a.205.205,0,0,1-.109-.031.1.1,0,0,1-.058-.082v-19.464c0-.058.063-.107.147-.114l41.05-3.368v-.407Zm.645,8.455v11.389l.434-.031v-11.391Zm543.336,7.249,46.208,4.094,4.84-.3-49.895-4.492-52.533,3.438,3.818.327,47.523-3.072Zm-542.565-7.309v11.394l7.51-.56v-11.416Zm476.86,1.565v8.787l10.3.889v-10.354Zm-361.908-60.67v27.359l8.1.737c.082.007.147.056.147.114v42.125l47.354-3.358v-72.171Zm384.354,70.153,12.031-.724v-.044Zm44.6-4.644,51.06,4.6v-14.611l-51.06-4.855Zm-536.059-7.011v11.42l.288-.022v-11.423Zm.625-.046v11.418l.443-.034v-11.42Zm.78-.063v11.425l7.146-.533v-11.445Zm430.686-1.3,34.329,3.106c.084.007.147.056.147.111v8.945l2.11.182v-9.633l-36.587-3.263Zm-423.2.724v11.445l.344-.024v-11.449Zm456.77,2.675v8.683l.572.049v-8.782ZM-9369.7-2198v11.449l.373-.029v-11.449Zm.712-.056v11.449l7.36-.543v-11.476Zm444.821,10.555,10.217.882v-8.651l-10.217-.952Zm26.7-13.906v14.679l.021,0,53.9-3.527v-14.87Zm-463.83,2.754v11.476l.257-.017v-11.479Zm.594-.046v11.479l.356-.029v-11.476Zm.693-.053v11.481l7.348-.548v-11.5Zm434.925,11.171.578.051v-8.862l-.578-.053Zm-.926-8.811v8.731l.589.051v-8.835Zm-10.124,7.857,9.787.845v-8.7l-9.787-.887Zm-416.193-10.812v11.5l.325-.022v-11.505Zm.659-.053v11.508l.361-.027v-11.508Zm.7-.051v11.508l3.939-.293v-11.522Zm414,10.844.494.041v-8.906l-.494-.046Zm-.97-8.811v8.729l.633.053v-8.872Zm-7.469,8.082,7.137.618v-8.69l-8.912-.838v9.063l1.729-.153Zm-388.441-20.113v20.624l43.237-3.176v-.191l-42.472,3.149h-.021a.19.19,0,0,1-.106-.031.1.1,0,0,1-.059-.085v-19.793c0-.056.065-.1.147-.111l42.511-3.443v-.4Zm.913,8.559v11.6l.369-.027v-11.6Zm.705-.053v11.6l7.864-.581v-11.622Zm8.2-.625v11.622l.269-.02v-11.621Zm173.341,11.328,3.474.283V-2229l-3.474-.324Zm-172.735-11.372v11.622l.358-.027v-11.622Zm.693-.053v11.624l7.592-.562v-11.641Zm160.7,10.51,11,.892v-39.087l-11-1.027Zm-152.78-11.115v11.641l.311-.022V-2202.3Zm.647-.046v11.641l.344-.029v-11.638Zm.683-.053v11.643l7.593-.564v-11.655Zm232.68,11.551,5.574-.385v-10.005l-5.574-.434Zm-135.43-4.719,53.863,4.356v-39.228l-53.863-5.037Zm141.338,4.312,3.22-.223v-9.347c0-.061.068-.106.153-.114l37.827-2.726a.242.242,0,0,1,.061,0l12.627-.911a.22.22,0,0,1,.131.029.109.109,0,0,1,.056.085v9.477l4.278-.293v-10.122l-58.348,4.186h0Zm-230.653-11.75v11.663l.278-.022V-2203Zm.615-.044v11.66l.494-.039v-11.66Zm.833-.065v11.66l7.653-.567v-11.675Zm290.535-1.575,37.5,3.455c.08.007.144.056.144.114v9.223l4.908.427V-2201.7l-2.323.162a.116.116,0,0,1-.041,0l-42.828-3.847v10.1l.615-.041h.034l1.795.157v-9.388a.108.108,0,0,1,.061-.085.2.2,0,0,1,.108-.028Zm-57.773,13.189.579-.041v-9.068l-.579-.078Zm.916-9.1v9.034l8.067-.555v-9.034Zm93.5-.358v8.973l.669.056v-9.068Zm-10.88,8.026,10.543.916v-8.949l-10.543-.95ZM-9296.1-2203.7v11.677l.247-.017v-11.68Zm.579-.041v11.677l.432-.034v-11.677Zm233.513,2.369v9.25l.758-.051v-9.255Zm-232.745-2.43v11.679l4.146-.308v-11.687Zm233.84,11.6.5-.036v-9.114l-.5-.068Zm.836-9.131v9.073l11.3-.78v-9.116Zm71.389,8.339.56.048v-9.15l-.56-.056Zm-.933-9.1v9.022l.6.053v-9.131Zm-58.825-.259v9.293l.744-.053v-9.293Zm48.219,8.358,10.27.894v-8.993l-10.27-.9Zm-47.138.86.5-.034v-9.17l-.5-.058Zm.836-9.189v9.131l11.677-.8v-9.16Zm12.014-1.032v9.334l.715-.048v-9.337Zm33.362,9.279.589.051v-9.216l-.589-.053Zm-32.312-.017.523-.036v-9.213l-.523-.058Zm31.35-9.107v9.042l.62.056v-9.182Zm-30.489-.135v9.182l11.457-.79v-9.184Zm19.192,8.2,10.96.952v-9.005l-10.96-1Zm66.233-4.894v.572l36.778,3.28c.084.007.145.058.145.114v.744l10.413-.683-45.6-4.126Zm1.918-.312,46.717,4.225v-15.292l-46.717-4.509Zm-442.626,2.985v.535l40.858-3.169v-.38Zm0-7.084v6.856l.434-.034v-6.856Zm.771-.063v6.861l7.51-.555v-6.922Zm7.847-.645v6.927l.288-.022v-6.929Zm.625-.051v6.931l.443-.031v-6.936Zm.78-.063v6.936l7.205-.531v-7Zm7.539-.62v7l.286-.022v-7Zm.623-.049v7l.409-.031v-7.006Zm.746-.063v7.014l7.323-.543v-7.072Zm7.66-.627v7.072l.23-.015v-7.074Zm.564-.046v7.079l.366-.029v-7.082Zm.7-.058v7.084l7.433-.548v-7.144Zm7.767-.637v7.149l.26-.02v-7.152Zm405.083-8.423v15.529l1.582-.092v-15.57Zm-404.489,8.375v7.154l.417-.029v-7.159Zm.751-.063v7.161l3.889-.288v-7.19Zm509.988-6.355,39.763,3.85c.085.01.148.056.148.114v8.525l2.449.232v-9.124l-45.878-4.484v9.422l1.049-.073h.044l2.231.213v-8.564a.1.1,0,0,1,.058-.085.221.221,0,0,1,.11-.028Zm-492,12.123v.584l42.324-3.22v-.458Zm531.042-7.893v8.177l.532.053v-8.341Zm-277.434,7.837,4.424.342,58.573-4.2h.038l42.951,3.859,5.674-.395-47.9-4.281Zm271.032-.269,6.064.577v-8.14l-6.064-.6Zm-272.386-15.486v15.626l64.946-4.765v-15.927Zm-252.255,8.661v6.919l.369-.024v-6.921Zm.705-.056v6.926l7.864-.574v-6.989Zm523.148,6.805.451.041v-8.407l-.451-.044Zm-.935-8.3v8.213l.6.058v-8.365Zm-8.967,7.363,8.63.819v-8.164l-8.63-.875Zm-69.462.785.39-.029v-8.494l-.39-.065Zm-126.952-4.392,49.008,4.378v-15.657l-49.011-4.647Zm127.679-4.114v8.455l11.868-.819v-8.462Zm-436.311,1.192v6.989l.291-.022v-6.992Zm.627-.051v6.994l.359-.027v-7Zm.7-.058v7l7.568-.552v-7.062Zm502.987,6.565.4.039v-8.426l-.4-.039Zm-.957-8.373v8.283l.62.061v-8.4Zm-54.839-.31v8.649l.69-.048v-8.649Zm1.026,8.576.476-.031v-8.516l-.476-.065Zm44.517-.867,8.959.853v-8.244l-8.959-.9Zm-484.834-6.229v7.062l.262-.019v-7.064Zm441.132-1.441v8.484l11.518-.8v-8.479Zm-440.531,1.391v7.069l.391-.031v-7.069Zm.729-.058v7.072l7.663-.56v-7.132Zm300.061,6.018,5.209.472-5.209-.48Zm-292.063-6.667v7.137l.281-.019v-7.14Zm.613-.051v7.144l.356-.027v-7.142Zm.692-.053v7.147l7.733-.564v-7.21Zm442.354-1.584v8.673l.661-.049v-8.671Zm31.056,8.6.453.044v-8.448l-.453-.044Zm-30.056,0,.368-.024v-8.542l-.368-.063Zm29.1-8.4v8.314l.618.056v-8.419Zm-28.4-.126v8.484l12.445-.858v-8.523Zm19.325,7.575,8.736.831v-8.281l-8.736-.838Zm-455.313-6.718v7.215l.242-.02v-7.21Zm.574-.043v7.215l.437-.031v-7.219Zm.772-.063v7.222l4.146-.3v-7.256Zm-94.672,6.592.729.09,41.668-3.392v-.087Zm-.975-13.991v13.838l43.371-3.465v-14.054Zm701.764,1.665,90.578,9.606v-22.712l-90.578-10.458Zm-646.144,7.91.777.1,43.395-3.469v-.216Zm526.488-.652,6.248.615.09-.017-6.338-.615ZM-9335.687-2224v14.073l45.078-3.656v-14.2Zm491.14,9.046,46.205,4.518,4.983-.337-50.04-4.986-52.736,3.782,4.026.4,47.519-3.382Zm34.324,4.346.068-.01-3.777-.366Zm-32.989-5.364,51.06,5.09v-14.609l-51.06-5.347Zm-67.052-5.368v8.571l10.3.993v-10.354Zm12.8-5.451v14.681l53.918-3.869v-14.863Zm-49.713,1.4,34.319,3.472c.079.01.143.056.143.114v8.8l2.12.2v-9.523l-36.582-3.639Zm33.544,3.765v8.53l.579.056v-8.637Zm-10.559,7.51,10.222.988v-8.5l-10.222-1.049Zm-.894-.085.558.053v-8.722l-.558-.056Zm-.9-8.7v8.61l.564.053v-8.7Zm-10.109,7.634,9.771.945v-8.586l-9.771-.947Zm-.885-.085.543.053v-8.777l-.543-.056Zm-.908-8.714v8.627l.571.053v-8.746Zm-7.513,7.9,7.176.693v-8.593l-8.951-.9v8.952l1.729-.148.022,0Zm-135.39-1.572,5.574-.438v-9.981l-5.574-.567Zm5.908-10.4v9.935l3.266-.254v-9.281c0-.056.063-.106.148-.114l50.428-4.063a.229.229,0,0,1,.133.029.1.1,0,0,1,.056.085v9.383l4.322-.337v-10.013Zm3.6,9.654.538-.044v-9.007l-.538-.068Zm.875-9.046v8.976l8.067-.627v-9.012Zm56.818-4.385,37.467,3.619c.079.007.143.056.143.111v9.107l4.964.472v-10.1l-2.318.194h-.046l-42.813-4.257v9.991l.61-.048.041,0,1.759.165v-9.138a.106.106,0,0,1,.059-.085.231.231,0,0,1,.12-.03Zm36.652,3.976v8.772l.62.058v-8.918Zm-10.837,7.743,10.5,1v-8.734l-10.5-1.039Zm-74.229-8.186v9.175l.692-.053v-9.179Zm1.029,9.094.574-.046v-9.012l-.574-.083Zm.911-9.051v8.979l11.3-.879v-9.024Zm71.386,8.058.571.056v-9l-.571-.056Zm-59.745-9.2v9.211l.72-.058v-9.211Zm58.773.286v8.819l.635.061v-8.959Zm-57.717,8.845.486-.041v-9.063l-.486-.073Zm47.133-1.03,10.25.971v-8.782l-10.25-1.015Zm-46.312-8.065v9.027l11.711-.913v-9.061Zm12.05-1.158v9.247l.722-.058v-9.247Zm33.326,9.133.6.056v-9.015l-.6-.061Zm-32.268.029.519-.039v-9.095l-.519-.061Zm31.276-8.932v8.811l.654.061v-8.976Zm-30.421-.194v9.061l11.392-.889v-9.044Zm85.4,3.69v.671l36.771,3.658c.09.01.146.058.146.111v.855l10.585-.812-45.771-4.557Zm-66.268,4.244,10.951,1.037v-8.772l-10.951-1.1Zm-349.8.744.673-.056v-8.894l-.576-.528h-.1Zm1.01-.085.71-.061,4.519-3.687-5.229-4.806Zm1.2-.1.736-.063,3.786-3.133-.283-.262Zm1.221-.1,6.1-.519-2.592-2.384Zm414.555-4.981,46.717,4.651v-15.292l-46.717-4.937Zm-416.973-3.753,8.9,8.181.5-.041-9.3-8.593h-.111Zm6.706,5.26,3.084,2.849.933-.08v-6.093Zm4.358,2.74.651-.053v-7.3l-.651-.007Zm.988-.082,1.175-.1v-7.164c-.385,0-.775,0-1.167,0h-.008Zm1.512-.131.618-.051v-9.441h-.618Zm.955-7.135v7.055l.686-.058v-.448c0-.058.058-.107.147-.112l2.51-.2,1.764-1.882-4.455-4.361Zm3.771,6.207.751-.061,1.151-1.238-.359-.349Zm1.18-.094,1.8-.14-.872-.858Zm6.183-.131.659.048v-7.316h-.659Zm-2.235-.177,1.9.15v-6.163l-4.308,4.567,1.521,1.512.846-.065Zm-8.9-6.851,7.135,6.99.5-.041-7.636-7.595Zm-8.349,5.16.332.305,4.22-3.5v-.519Zm14.286-.308.347.349,4.516-4.785v-.656h-.147Zm-14.487.119,4.753-3.879v-.065c-3.663-.056-6.984-.213-9.519-.458Zm515.335-13.146,39.768,4.3c.08.01.144.056.144.114v8.4l2.423.254v-8.99l-45.808-4.945v9.322l1-.075.046,0,2.231.233v-8.511a.1.1,0,0,1,.058-.085.217.217,0,0,1,.106-.029Zm-504.7,9.194,3.646,3.624,3.7-3.992C-9340.2-2230.459-9342.73-2230.333-9345.633-2230.277Zm543.736-4.526v8.06l.537.058v-8.22Zm-6.42,7.389,6.083.635v-8.036l-6.083-.671Zm-138.864-15.207v15.527l1.582-.068v-15.573Zm-354.3,7.392v8.13l.625-.053v-8.22A6.337,6.337,0,0,1-9301.478-2235.229Zm492.371,7.733.453.046v-8.3l-.453-.048Zm-.931-8.193v8.094l.594.063v-8.254Zm-8.944,7.159,8.607.9v-8.055l-8.607-.942Zm-69.462.831.383-.031v-8.4l-.383-.094Zm.722-8.4v8.341l11.919-.9V-2237Zm-89.389,7.958.063-.01-5.908-.569Zm-102.474-.688,4.627.472,58.629-4.654.041,0,42.932,4.269,5.875-.494-48.087-4.724Zm259.827.216.438.044v-8.336l-.438-.046Zm-.972-8.237v8.133l.638.065v-8.293Zm-54.737-.431v8.6l.649-.048v-8.6Zm45.464,7.593,8.935.938v-8.1l-8.935-.964Zm-44.48.938.391-.031v-8.419l-.391-.094Zm.723-8.421v8.365l11.611-.872v-8.4Zm-206.919-7.42v15.621l64.946-5.2V-2250.1Zm-135.546,8.91,69.012,6.452v-24.677l-69.012-7.069Zm200.829,1.509,49.008,4.819v-15.658l-49.011-5.085Zm153.584-4.155v8.625l.654-.051v-8.622Zm31.044,8.562.429.043v-8.375l-.429-.046Zm-30.051-.012.356-.027v-8.477l-.356-.073Zm29.077-8.251v8.159l.642.068v-8.329Zm-28.387-.213v8.412l12.46-.935v-8.431Zm19.34,7.426,8.71.913v-8.114l-8.71-.981Zm-522.275-.768h1.024a.194.194,0,0,1,.134.046l.6.55c2.849.291,6.8.473,11.142.506.388,0,.775,0,1.16,0v-2.246c0-.061.078-.114.17-.114h.954c.09,0,.168.053.168.114v.373l1.86,1.851c3.125-.056,5.824-.194,7.806-.4l.756-.812a.2.2,0,0,1,.141-.053h1.4c.09,0,.162.051.162.114v.366c.6-.153.693-.279.7-.33-.026-.531-5.267-1.3-15.081-1.371-7.694-.061-14.223.38-15.189,1.03-.059.039-.09.073-.09.107.015.063.172.3,1.667.557v-.177c0-.063.07-.114.167-.114Zm15.348,1.1c.14,0,.28,0,.421,0l-.421-.412Zm345.381-.09.072-.012-4.293-.414Zm-360.237-.639v-.146h-.157Zm339.584-.31,1.8-.138v-.007Zm-326.977-1.7c6.527.051,13.487.465,15.076,1.257v-24.81c0-.189-.988-.615-4.692-1.018-3.11-.334-7.181-.545-11.166-.577-7.784-.058-13.424.567-14.383,1.211-.08.051-.119.1-.119.148v24.806c1.309-.62,6.81-1.023,13.856-1.023C-9350.924-2233.221-9350.446-2233.219-9349.965-2233.216Zm547.964-1.8.026-.007-4.149-.451Zm-495.886-5.209a5.1,5.1,0,0,1-4.242,4.833,3.428,3.428,0,0,0,.54-.051,4.878,4.878,0,0,0,4.3-4.676,3.8,3.8,0,0,0-2.808-3.661A4.016,4.016,0,0,1-9297.887-2240.227Zm-5.485,4.719c.08.007.157.01.24.01a3.314,3.314,0,0,0,.6-.053,4.881,4.881,0,0,0,4.3-4.676,3.794,3.794,0,0,0-3.2-3.745l-.324-.036c-.085-.007-.175-.01-.267-.01-.147,0-.3.01-.446.024a4.888,4.888,0,0,0-4.295,4.637,3.8,3.8,0,0,0,3.074,3.816v0Zm458.824-5.071,46.2,4.986,5.147-.412-50.2-5.5-52.916,4.165,4.206.489,47.516-3.733Zm25.566,3.719,8.772.964.075-.012-8.848-.959Zm-24.231-4.853,51.06,5.589v-14.609l-51.06-5.848Zm-44.666,5.386.046.007,12.03-.916v-.02Zm57.877-1.715,9.124.984.048-.007-9.172-.993Zm-43.913.642.029.007,8.169-.632Zm-23.553-14.756v14.681l53.918-4.244v-14.868Zm-12.8,4.487v8.409l10.3,1.09v-10.292Zm78.334,9.436.136-.019-8.736-.945Zm109.528-6.691v5.919l.555-.041v-6A4.161,4.161,0,0,1-8722.4-2244.925Zm-224.778-7.212,34.351,3.787c.077.01.141.058.141.111v8.722l2.088.22v-9.356l-36.579-4.036Zm33.544,4.089v8.431l.61.063v-8.552Zm-10.565,7.314,10.23,1.081v-8.4l-10.23-1.122Zm219.071-8.218c-.078.012-.158.022-.23.029v8.656l.664-.051v-8.712C-8704.841-2249-8704.983-2248.973-8705.131-2248.951Zm-219.963,8.123.555.061v-8.642l-.555-.061Zm-.923-8.586v8.489l.586.061v-8.605Zm-10.122,7.42,9.785,1.032v-8.448l-9.785-1.078Zm-.846-.09.509.053v-8.7l-.509-.056Zm-.906-8.615v8.518l.569.061v-8.656Zm-7.512,7.724,7.173.76v-8.46l-8.951-1v8.821l1.734-.124Zm-135.393-1.836,5.574-.472v-9.819l-5.574-.56Zm361.123-3.457a3.44,3.44,0,0,1-2.73,3.108c1.839-.33,3.108-1.56,3.108-3.036a2.5,2.5,0,0,0-1.715-2.275A2.611,2.611,0,0,1-8719.672-2248.268Zm-3.516-2.459a3.42,3.42,0,0,0-3.236,3.036,2.6,2.6,0,0,0,2.3,2.49l.235.024c.058,0,.121,0,.182,0a2.86,2.86,0,0,0,.453-.034c1.9-.291,3.241-1.548,3.241-3.062a2.614,2.614,0,0,0-2.405-2.447l-.235-.022c-.07,0-.136-.007-.2-.007A3.077,3.077,0,0,0-8723.187-2250.727Zm-351.7-4.356v9.771l3.2-.271v-9.116c0-.056.068-.1.148-.111l50.541-4.46a.224.224,0,0,1,.134.027.11.11,0,0,1,.056.085v9.262l4.278-.361v-9.9Zm3.537,9.47.569-.048v-8.828l-.569-.073Zm.906-8.876v8.8l8.1-.686v-8.823Zm56.879-4.879,37.481,4.063c.085.01.143.058.143.116v8.959l4.911.509v-9.95l-2.338.184a.164.164,0,0,1-.049,0l-42.779-4.683v9.882l.61-.051a.115.115,0,0,1,.041,0l1.783.184v-9.1a.109.109,0,0,1,.061-.09.216.216,0,0,1,.111-.028Zm36.667,4.419v8.62l.62.065v-8.785Zm-10.888,7.491,10.551,1.095v-8.579l-10.551-1.153Zm-74.218-7.966v9.02l.72-.063v-9.02Zm1.052,8.93.538-.046v-8.833l-.538-.092Zm.872-8.872v8.8l11.353-.962v-8.855Zm71.4,7.816.558.056v-8.884l-.558-.061Zm-59.713-9.075v9.068l.686-.061v-9.068Zm58.767.286v8.688l.61.065v-8.843Zm-57.742,8.693.468-.036v-8.9l-.468-.08Zm47.147-1.1,10.258,1.063v-8.649l-10.258-1.117Zm-46.346-7.811v8.845l11.75-1v-8.9Zm99.383,3.007v.632l36.771,4.055c.085.01.146.056.146.114v.848l10.652-.816-45.832-5.012Zm-87.3-4.3v9.112l.712-.058v-9.119Zm33.346,9.008.581.061v-8.942l-.581-.063Zm-32.292.014.5-.041v-8.942l-.5-.087Zm88.16-5.112,46.717,5.107v-15.289l-46.717-5.4Zm-56.828-3.74v8.739l.623.065v-8.9Zm-30.491-.116v8.9l11.433-.971v-8.939Zm19.158,7.68,11,1.139v-8.69l-11-1.209Zm312.269-3.6c0,2.2-1.87,4.041-4.6,4.6a4.193,4.193,0,0,0,.553-.049c2.8-.419,4.753-2.248,4.753-4.446a3.751,3.751,0,0,0-3.084-3.477A3.807,3.807,0,0,1-8701.155-2253.721Zm-5.027-3.581c-2.616.269-4.738,2.243-4.738,4.407a3.793,3.793,0,0,0,3.394,3.629l.34.031c.092.007.179.012.273.012a4.5,4.5,0,0,0,.671-.051c2.793-.424,4.751-2.25,4.751-4.448a3.831,3.831,0,0,0-3.547-3.564l-.342-.034c-.1,0-.2-.01-.3-.01A4.873,4.873,0,0,0-8706.183-2257.3Zm-15.979,4.281c-.078.012-.15.022-.228.031v2.047l.026,0,.533.051v-2.187C-8721.939-2253.055-8722.051-2253.038-8722.162-2253.021Zm-225.019,1.119,9.046,1.008.051-.007-9.1-1.005Zm106.255-13.216,9.986,1.166,29.776,3.471c.08.012.144.058.144.112v8.392l2.454.279v-8.852l-45.839-5.417v9.221l1-.082.048,0,2.229.254V-2265a.112.112,0,0,1,.058-.09.259.259,0,0,1,.114-.026Zm39.065,5.061v7.98l.5.061v-8.184Zm-6.449,7.244,6.112.7v-7.927l-6.112-.732Zm-.8-.092.468.053v-8.271l-.468-.053Zm-.9-8.092v7.988l.564.065v-8.2Zm-8.983,6.96,8.651.991v-7.925l-8.651-1.056Zm-69.447.906.395-.031.036-8.273-.431-.1Zm171.313-5.991c0,2.9-2.524,5.315-6.163,5.938a5.728,5.728,0,0,0,1.057-.061c3.593-.543,6.1-2.907,6.1-5.744a4.9,4.9,0,0,0-4.3-4.569A4.919,4.919,0,0,1-8717.131-2259.121Zm-170.545-2.292-.036,8.225,11.886-.976v-8.244Zm164.174-2.343c-3.355.349-6.088,2.9-6.088,5.7a4.9,4.9,0,0,0,4.375,4.69l.434.046c.121.007.237.012.358.012a5.363,5.363,0,0,0,.855-.068c3.593-.543,6.1-2.9,6.1-5.747a4.943,4.943,0,0,0-4.555-4.61l-.443-.041c-.134-.01-.26-.015-.393-.015A6.386,6.386,0,0,0-8723.5-2263.756Zm-223.679-5.553v15.524l1.582-.162v-15.565Zm127.4,15.183.45.049v-8.291l-.45-.053Zm-.921-8.13v8.021l.584.068v-8.227Zm-54.788-.431v8.494l.692-.056v-8.494Zm45.52,7.392,8.93,1.025v-7.963l-8.93-1.066Zm-44.492,1.02.375-.031v-8.317l-.375-.087Zm.71-8.317v8.257l11.567-.95v-8.276Zm-114.03,6.265,10.716,1.173.1-.017-10.815-1.17Zm-91.84.552,4.671.468,58.626-5.1a.073.073,0,0,1,.046,0l42.9,4.7,5.933-.465-48.118-5.235Zm217.777-8.058v8.521l.7-.058v-8.521Zm31.054,8.445.479.056v-8.317l-.479-.053Zm-30.02-.01.366-.031v-8.322l-.366-.1Zm29.11-8.15v8.055l.572.063v-8.249Zm-28.405-.146v8.237l12.44-1.022v-8.264Zm19.32,7.159,8.744,1v-7.973l-8.744-1.085Zm-239.891-15v15.626l64.946-5.722v-15.924Zm65.283,9.906,49.008,5.337v-15.658l-49.011-5.6Zm15.178,3.951,10.422,1.134.054-.01-10.476-1.134Zm-46.454.9.133-.012Zm33.248-2.333,11.145,1.226.108-.019-11.253-1.219Zm-227.821-5.4v5.63l.656-.061v-5.739A4.784,4.784,0,0,1-9241.245-2264.507Zm432.936,3.5,6.265.751.25-.07-6.515-.758Zm-416.086-7.716-.032,0v8.266l.669-.063v-8.351A6.086,6.086,0,0,1-9224.4-2268.72Zm379.851,2.5,46.2,5.463,5.211-.419-50.27-6.044-53.011,4.5,4.3.54,47.516-4.039Zm25.549,3.959,8.777,1.073.315-.085-9.093-1.059Zm-24.217-5.167,51.06,6.139v-14.606l-51.06-6.4Zm-44.669,5.783.056.01,12-1.005v-.019Zm57.909-1.887,9.058,1.081.3-.068-9.354-1.09Zm-43.923.708.026.007,11.682-.977v-.012Zm-23.572-14.718v14.681l53.918-4.576V-2282.3Zm56.68,12.719,8.828,1.093.315-.073-9.144-1.066Zm-19.533.86.157.043,12.5-1.051v-.056Zm-49.937-9.977v8.232l10.294,1.189v-10.306Zm-328.437,5.844a3.608,3.608,0,0,1-2.685,3.38,3.449,3.449,0,0,0,3.021-3.3,2.678,2.678,0,0,0-1.633-2.464A2.874,2.874,0,0,1-9238.694-2268.095Zm-3.3-2.658a3.449,3.449,0,0,0-3.025,3.275,2.716,2.716,0,0,0,2.189,2.7l.175.019c.056,0,.116.007.177.007a2.371,2.371,0,0,0,.414-.036,3.444,3.444,0,0,0,3.038-3.307,2.674,2.674,0,0,0-2.245-2.643l-.229-.024c-.061,0-.118-.01-.184-.01A2.775,2.775,0,0,0-9242-2270.752Zm294.818-8.114,34.336,4.094c.077.007.141.056.141.111v8.671l2.105.242v-9.23l-36.582-4.417Zm33.546,4.438v8.332l.592.068v-8.491Zm-10.561,7.11,10.224,1.18v-8.29l-10.224-1.236Zm-.848-.1.514.058v-8.579l-.514-.061Zm-.969-8.5v8.387l.635.075V-2276Zm-10.1,7.224,9.759,1.124v-8.339l-9.759-1.173Zm-.869-.1.535.065v-8.627l-.535-.063Zm-.916-8.537v8.433l.576.068v-8.583Zm-282.779,3.464a5.239,5.239,0,0,1-4.393,4.979,3.648,3.648,0,0,0,.589-.048,5.041,5.041,0,0,0,4.443-4.821,3.924,3.924,0,0,0-2.927-3.782A4.133,4.133,0,0,1-9220.677-2273.868Zm275.274,4.1,7.168.826v-8.38l-8.946-1.066v8.845l1.72-.225.03,0Zm-279.977-7.99a5.034,5.034,0,0,0-4.427,4.778,3.92,3.92,0,0,0,3.171,3.937l.315.034c.08,0,.17.01.249.01a4.06,4.06,0,0,0,.618-.051,5.043,5.043,0,0,0,4.443-4.821,3.916,3.916,0,0,0-3.307-3.864l-.325-.036c-.1,0-.184-.01-.278-.01A4.169,4.169,0,0,0-9225.379-2277.754Zm-15.724,4.891-.16.027v1.868l.039,0,.6.065.029,0,.017,0v-2.081C-9240.754-2272.928-9240.926-2272.892-9241.1-2272.863Zm160.308,1.107,5.574-.516v-9.773l-5.574-.6Zm5.908-10.26v9.715l3.229-.3v-9.063c0-.056.061-.1.146-.114l50.51-4.857a.234.234,0,0,1,.134.027.1.1,0,0,1,.056.085v9.208l4.278-.4v-9.841Zm3.564,9.383.545-.051v-8.758l-.545-.082Zm57.78-14.1,37.439,4.494c.077.01.136.058.136.112v8.85l4.954.564v-9.935l-2.384.194-.049,0-42.75-5.107v9.817l.608-.056.048,0,1.8.2v-9.024a.116.116,0,0,1,.061-.09.28.28,0,0,1,.112-.023Zm-56.9,5.3v8.719l8.14-.753v-8.763Zm-165.892,1.955c0,3.164-2.428,5.8-5.924,6.456a4.547,4.547,0,0,0,1.071-.061c3.4-.591,5.769-3.162,5.769-6.253a5.1,5.1,0,0,0-4.131-4.986A5.309,5.309,0,0,1-9236.332-2279.479Zm-6.035-5.046a6.541,6.541,0,0,0-5.759,6.2,5.094,5.094,0,0,0,4.136,5.112l.412.046c.108.01.22.014.329.014a5.024,5.024,0,0,0,.807-.068c3.4-.6,5.773-3.166,5.773-6.258a5.09,5.09,0,0,0-4.31-5.02l-.422-.049c-.119-.01-.242-.012-.361-.012A5.039,5.039,0,0,0-9242.367-2284.525Zm265.445,2.58v8.559l.618.068V-2282Zm-10.872,7.314,10.533,1.207v-8.528l-10.533-1.277Zm-74.175-7.837v8.969l.692-.065v-8.966Zm1.029,8.874.507-.048v-8.782l-.507-.068Zm.846-8.823v8.743l11.379-1.056v-8.768Zm112.913,2.037v.756l36.778,4.438c.084.01.145.058.145.111v.9l10.757-.921-45.943-5.466Zm33.394,5.739.056-.007-10.347-1.233Zm-74.906-.092.558.065v-8.784l-.558-.068Zm-59.685-9.041v9.012l.664-.061v-9.017Zm58.737.351v8.581l.61.07v-8.741Zm-57.736,8.569.477-.043v-8.848l-.477-.08Zm47.156-1.2,10.243,1.17v-8.537l-10.243-1.255Zm-46.343-7.687v8.809l11.748-1.09v-8.86Zm101.3,2.973,46.717,5.555V-2290.5l-46.717-5.844Zm-89.216-4.349v9.063l.707-.065v-9.063Zm33.328,8.957.594.07v-8.855l-.594-.073Zm65.038-1.151,9.892,1.187.059-.007-9.95-1.187Zm-97.32,1.163.5-.048v-8.86l-.5-.1Zm31.361-8.8v8.683l.584.065v-8.819Zm-30.525-.1v8.816l11.447-1.061v-8.857Zm19.19,7.484,11,1.257v-8.627l-11-1.3Zm172.48-13.143,9.969,1.272,21.717,2.776h0l8.082,1.032c.077.01.136.058.136.112v8.271l2.454.308v-8.823l-45.861-5.807v9.107l1.022-.087a.212.212,0,0,1,.056,0l2.225.276v-8.324a.1.1,0,0,1,.063-.087.212.212,0,0,1,.1-.027Zm39.082,5.468v7.891l.484.061v-8.065Zm-6.485,7.079,6.148.768v-7.832l-6.148-.766Zm-138.852-.463,9.072,1.085.075-.012-9.147-1.09Zm138.081.366.434.053v-8.15l-.434-.056Zm-.93-8.021v7.905l.6.075v-8.1Zm-8.944,6.783,8.6,1.078v-7.849l-8.6-1.119Zm-69.47.921.383-.034v-8.167l-.383-.1Zm.719-8.162v8.1l11.884-1.049v-8.118Zm67.941,7.139.473.061v-8.179l-.473-.061Zm-.9-8.048v7.937l.564.07v-8.121Zm-54.825-.465v8.395l.676-.061v-8.395Zm45.526,7.237,8.962,1.122v-7.871l-8.962-1.158Zm-44.514,1.068.393-.036v-8.208l-.393-.092Zm.731-8.21v8.145l11.583-1.022v-8.186Zm-73.418-8.125v15.524l1.582-.16v-15.571Zm116.367,15.161.5.065v-8.2l-.5-.065Zm-31.027-8.361v8.419l.671-.061v-8.419Zm1.011,8.329.375-.031v-8.266l-.375-.07Zm29.076-8.017v7.932l.6.077v-8.145Zm-28.366-.24v8.193l12.452-1.1v-8.225Zm19.332,7.04,8.7,1.09v-7.878l-8.7-1.16Zm-238.932-.54,4.795.521,58.594-5.565a.163.163,0,0,1,.049,0l42.873,5.124,6.035-.484-48.193-5.751Zm20.074.073,10.931-1.037v-.017Zm-21.033-15.832v15.626l64.946-6.236v-15.927Zm65.283,9.393,49.008,5.848v-15.655l-49.011-6.117Zm25.578,5.5.09-.012-10.088-1.209Zm-23.589-2.827,11.1,1.311.022,0-11.127-1.335Zm-19.418,1.187.075.015,11.6-1.119v-.019Zm224.5-.945,6.3.787.193-.046-6.49-.831Zm-36.214-5.591,46.2,5.848,5.306-.48-50.364-6.478-53.054,4.92,4.346.552,47.511-4.363.026,0Zm25.569,4.194,8.75,1.143.228-.046-8.978-1.148Zm-24.239-5.512,51.06,6.568v-14.606l-51.06-6.829Zm-44.736,6.142.123.034,11.985-1.078v-.044Zm57.969-2.023,9.08,1.175.235-.049-9.315-1.192Zm-67.487-13.807v14.684l53.918-5.005V-2308Zm23.536,14.567.07.017,11.682-1.073Zm33.144-2.154,8.857,1.18.278-.065-9.136-1.165Zm-69.5-9.814v8.014l10.315,1.291v-10.25Zm-36.895-5.39,34.329,4.455c.077.012.138.061.138.114v8.533l2.1.261v-9.16l-36.562-4.729Zm33.57,4.778v8.213l.555.068v-8.353Zm-10.567,6.89,10.229,1.279v-8.177l-10.229-1.315Zm-.916-.114.579.07v-8.45l-.579-.075Zm-.913-8.363v8.249l.576.07v-8.406Zm-10.129,6.982,9.792,1.223v-8.2l-9.792-1.272Zm-.855-.107.519.065v-8.511l-.519-.065Zm-.921-8.4v8.283l.584.075v-8.46Zm-7.486,7.345,7.154.9v-8.242l-8.937-1.177v8.748l1.72-.225.03,0Zm-135.4-2.146,5.574-.56v-9.671l-5.574-.71Zm5.908-10.2v9.608l3.259-.327v-8.964c0-.056.063-.1.146-.112l50.5-5.269a.248.248,0,0,1,.138.027.107.107,0,0,1,.056.087v9.114l4.257-.429v-9.722Zm3.6,9.247.47-.046v-8.651l-.47-.085Zm57.725-14.371,24.757,3.149,12.717,1.618c.082.012.143.058.143.112v8.826l4.931.618v-9.884l-2.261.206a.175.175,0,0,1-.051,0l-42.864-5.511v9.7l.608-.063a.2.2,0,0,1,.051,0l1.769.223v-8.874a.1.1,0,0,1,.063-.09.252.252,0,0,1,.113-.026Zm-56.918,5.684v8.608l8.152-.821v-8.639Zm93.592-.569v8.475l.6.075v-8.642Zm29.712,1.752v.838l36.759,4.753c.08.012.136.058.136.114v1.051l10.863-.993-46.023-5.938Zm-40.6,5.364,10.554,1.315v-8.441l-10.554-1.337ZM-9062-2309.5v8.867l.705-.07v-8.869Zm1.044,8.763.506-.053v-8.687l-.509-.083Zm.848-8.719v8.634l11.348-1.143v-8.668Zm114.841,1.868,46.717,6.028v-15.287l-46.717-6.316Zm-43.411,5.637.555.07v-8.719l-.555-.07Zm-.928-8.605v8.489l.591.075v-8.668Zm-58.817-.361V-2302l.7-.07v-8.918Zm124.241,8.533,2.652.342-2.652-.344Zm-123.2.281.491-.048v-8.717l-.491-.1Zm47.152-1.291,10.291,1.284v-8.431l-10.291-1.327Zm-46.326-7.445v8.654l11.726-1.18v-8.724Zm205.635-5.466,21,2.915h0l10.667,1.48,8.1,1.122c.077.012.136.058.136.112v8.092l2.454.33v-8.685l-45.854-6.26v9.053l1.015-.1a.212.212,0,0,1,.056,0l2.225.3v-8.244a.105.105,0,0,1,.063-.087.223.223,0,0,1,.109-.026Zm-95.215,12.394,9.949,1.291.1-.017-10.046-1.3Zm134.261-6.524v7.736l.516.07v-7.9Zm-6.433,6.878,6.1.812v-7.687l-6.1-.836Zm-226.186-8.811v8.969l.712-.073v-8.971Zm33.338,8.86.589.075v-8.75l-.589-.073Zm-32.289,0,.463-.046v-8.772l-.463-.094Zm31.315-8.658v8.535l.632.08v-8.707Zm-30.517-.133v8.712l11.521-1.158v-8.741Zm223.531,8.632.471.063v-7.992l-.471-.063Zm-204.316-1.374,10.965,1.369v-8.491l-10.965-1.417Zm203.416-6.514v7.767l.566.075v-7.941Zm-8.972,6.568,8.635,1.153v-7.721l-8.635-1.19Zm-69.457,1.076.4-.039v-8.135l-.4-.082Zm.743-8.157v8.084l11.859-1.141v-8.084Zm-59.48,6.718,9.111,1.2.146-.027-9.257-1.2Zm127.393.257.463.061v-8.043l-.463-.065Zm-.911-7.941v7.818l.579.077v-7.995Zm-54.808-.456v8.334l.722-.07v-8.334Zm1.059,8.232.373-.036v-8.179l-.373-.07Zm44.437-1.2,8.974,1.2v-7.757l-8.974-1.214Zm-43.731-6.989v8.123l11.595-1.114v-8.109Zm11.932-1.379v8.356l.676-.065v-8.354Zm31.075,8.271.388.051v-8.1l-.388-.053Zm-30.062-.012.349-.036v-8.218l-.349-.058Zm29.069-7.949v7.83l.661.085v-8.041Zm-28.384-.264v8.145l12.445-1.2v-8.152Zm19.325,6.883,8.725,1.165v-7.781l-8.725-1.216Zm-106.393-15.057v15.524l1.582-.162v-15.568Zm-132.665,13.167,4.9.623,58.6-6.013a.191.191,0,0,1,.053,0l42.99,5.528,6.035-.552-48.3-6.25Zm92.061-.744,10.762,1.364.063-.01-10.825-1.378Zm-72.464.853.036,0,11.457-1.189v-.012Zm-20.43-15.878v15.621l64.946-6.732v-15.924Zm65.283,8.894,49.008,6.345v-15.655l-49.011-6.612Zm207.088,5.165,6.275.86.116-.022-6.392-.884Zm-191.922-.6,10.424,1.344.191-.031-10.615-1.354Zm-46.562,1.018.126.024,11.835-1.26v-.012Zm202.233-6.369,46.135,6.3,5.466-.528-50.4-6.968-54.85,5.439v.155l3.688.577,49.9-4.974.029,0Zm25.571,4.477,8.816,1.211.143-.022-8.959-1.243Zm-24.2-5.882,51.048,7.055v-14.587l-51.048-7.338Zm-44.141,6.524,11.488-1.1v-.017Zm-126.1-1.478,11.134,1.437.109-.012-11.243-1.432Zm-19.435,1.274.1.022,11.637-1.2v-.046Zm202.854-1.926,9.1,1.231.2-.034-9.3-1.291Zm-80.274-12.038v7.833l11.943,1.616c.077.012.138.056.138.111v3.5l54.685-5.422v-14.87l-54.706,5.628v.38a.1.1,0,0,1-.065.087.21.21,0,0,1-.1.027l-.041,0-.129-.02Zm43.246,12.186,4.892-.465v-.012Zm26.252-1.65,8.9,1.24.281-.051-9.183-1.277Zm-106.393-16.355,34.334,4.809c.072.012.133.058.133.111v8.4l2.1.283v-9.034l-36.562-5.078Zm33.585,5.119v8.087l.54.073v-8.222Zm-10.606,6.653,10.27,1.388v-8.031l-10.27-1.456Zm-.87-.119.533.073v-8.322l-.533-.075Zm-.954-8.257v8.128l.615.085v-8.283Zm-10.081,6.767,9.744,1.315v-8.092l-9.744-1.35Zm-.892-.121.556.075v-8.38l-.556-.078Zm-.9-8.312v8.191l.563.078v-8.341Zm-7.5,7.178,7.166.969v-8.138l-8.951-1.219v8.613l1.72-.225a.125.125,0,0,1,.031,0A.17.17,0,0,1-8945.4-2323.411Zm-135.4-12.894v10.531l5.574-.605v-9.574l-4.44-.528Zm5.908.373v9.516l3.208-.346v-8.838c0-.056.063-.1.143-.112l37.891-4.213,12.692-1.412a.22.22,0,0,1,.138.029.1.1,0,0,1,.059.085v8.942l4.223-.456v-9.594Zm127.706,2.876,36.761,5.107c.08.01.134.056.134.112v1.107l10.747-1.037-47.642-6.646Zm-124.161,6.255.509-.053v-8.5l-.509-.1Zm57.753-14.686,37.488,5.17c.075.012.134.058.134.111v8.707l4.93.666v-9.276l-45.158-6.231v9.564l.6-.063a.212.212,0,0,1,.056,0l1.744.235v-8.772a.11.11,0,0,1,.063-.087.219.219,0,0,1,.107-.027Zm-56.908,6.163v8.431l8.131-.879v-8.487Zm156.7,7.915.015,0-2.261-.315Zm70.494-6.57,45.539,6.548v-9.453l-102.675-15.151v8.327l2.084.3c.072.012.133.061.133.116v14.96l54.863-5.645.028,0Zm-133.575-1.938v8.293l.579.08v-8.5Zm-10.924,6.822,10.587,1.427v-8.242l-10.587-1.49Zm-74.228-7.442v8.729l.744-.08v-8.731Zm46.653-7.617,116.815,16.29v-15.34l-116.815-16.871Zm-45.57,16.229.514-.058v-8.506l-.514-.106Zm.853-8.535v8.443l11.353-1.231v-8.535Zm123.991,5.945,9.938,1.376.023,0-9.962-1.4Zm-52.583,1.3.547.075v-8.6l-.547-.075Zm-.9-8.475v8.353l.562.075v-8.542Zm-58.817-.361v8.768l.69-.075v-8.77Zm48.206,7.282,10.274,1.386v-8.3l-10.274-1.437Zm-47.179,1.374.489-.051v-8.567l-.489-.094Zm.826-8.583v8.494l11.718-1.27v-8.532Zm12.055-1.618v8.806l.715-.077v-8.809Zm87.32,7.563,9.08,1.24.077-.01-9.157-1.284Zm-53.987,1.134.628.085v-8.639l-.628-.087Zm-32.281,0,.484-.056v-8.6l-.484-.1Zm31.4-8.506v8.39l.55.073v-8.579Zm-30.574-.131v8.545l11.534-1.248v-8.586Zm19.173,6.982,11.064,1.492v-8.332l-11.064-1.533Zm-57.289-3.014.139.029,8.239-.95v-.007Zm82.938-2.062,10.759,1.512.26-.058-11.019-1.519Zm-92.034.9,4.887.577,58.641-6.427a.227.227,0,0,1,.058,0l45.367,6.26,5.739-.594-50.4-7.028Zm-1.359.191.17.036.509-.08-.228-.024Zm20.8-.179.191.041,11.464-1.337Zm-20.271-15.844v15.694l64.956-7.287v-15.927Zm80.469,13.213,10.43,1.461.229-.046-10.659-1.473Zm-46.593,1.119.155.029,11.8-1.315v-.043Zm33.341-2.931,11.212,1.555.232-.051-11.444-1.577Zm-19.433,1.386.114.022,11.68-1.3v-.031Zm184.515-4.809,21.118,3.118v-6.081l-21.118-3.188Zm-242.13-30.668v32.238l9.492-1.117v-6.141l-2.515.317h-.032a.228.228,0,0,1-.1-.024.112.112,0,0,1-.065-.09v-8.523c0-.056.061-.1.143-.112l12.344-1.48a.216.216,0,0,1,.136.024.1.1,0,0,1,.061.087v6.163l.962-.109v-23.728Zm157.211,26.8,32.51,4.693v-8.266Zm70.761-.012,12.712,1.858c.077.01.133.058.133.111v1.715l.977.145v-6.122l-21.223,2.285v.705l.245.036,7.094-.737.023,0A.177.177,0,0,1-8862.531-2348.464Zm.129,1.81,12.377,1.827v-1.575l-12.377-1.81Zm-6.372-.942,6.035.894v-1.519Zm-6.185-.913,2.427.361v-48.78l-2.427-.085Zm-208.429-1.7.473-.058v-8.075l-.473-.1Zm.81-8.123v8.021l1.567-.2v-2.151c0-.058.061-.1.143-.112l9.487-1.1v-5.822Zm67.063-2,46.326,6.694v-24.946l-47.506-7.329v25.712l1.119-.131.029,0Zm-54.23-19.1v25.377l52.714-6.1v-25.755Zm-13.1,20.871.108.024,11.355-1.383v-.014Zm-33.331-22.785v7.426l19.354-2.367.031,0,.034,0,6.086.826,1.327-.162v-9.1Zm27.17,5.681,18.924-2.309v-1.555c0-.053.056-.1.136-.109l1.063-.133v-1.931l-20.123-3.014Zm62.684-53.94v44.6l2.73-.334v-44.34Zm11.231,21.172v22.54l1.682.259v-22.858Zm374.468,449.609-3.7-.034c-.1,0-.167-.051-.167-.114l-.029-29.055a.115.115,0,0,1,.049-.085.228.228,0,0,1,.124-.029l3.73.048c.095,0,.167.053.167.114v29.04a.1.1,0,0,1-.051.082.2.2,0,0,1-.116.031Zm-1.09-.235.925.01v-28.818l-.925-.012Zm-2.442-.024,2.105.019v-28.82l-2.13-.027Zm-514.841-.23c-.095,0-.167-.051-.167-.114V-1990.4a.1.1,0,0,1,.048-.082.224.224,0,0,1,.124-.031l4.993.051c.09,0,.164.053.164.116v30.916c0,.063-.074.114-.169.114Zm3.828-.228h1v-30.693l-1-.007Zm-3.658,0h3.326v-30.7l-3.326-.034Zm553.077-15.88-14.221-.085c-.095,0-.167-.053-.167-.111v-7.576a.1.1,0,0,1,.053-.08.179.179,0,0,1,.119-.034l14.224.177c.087,0,.164.053.164.114v7.481a.1.1,0,0,1-.048.08.236.236,0,0,1-.119.034Zm-2.233-.242,2.068.012v-7.253l-2.068-.027Zm-3.627-.022,3.292.019v-7.266l-3.292-.044Zm-2.011-.012,1.674.01v-7.292l-1.674-.019Zm-2.374-.012,2.04.012v-7.307l-2.04-.024Zm-3.807-.022,3.467.022v-7.324l-3.467-.044Zm-60.449-.366c-.093,0-.165-.053-.165-.114v-7.823a.1.1,0,0,1,.048-.08.194.194,0,0,1,.124-.034l14.863.184c.092,0,.164.053.164.116v7.724a.109.109,0,0,1-.046.08.231.231,0,0,1-.126.034Zm12.522-.153,2.178.01v-7.5l-2.178-.029Zm-3.794-.024,3.457.019v-7.515l-3.457-.041Zm-2.1-.012,1.767.012v-7.542l-1.767-.022Zm-2.482-.015,2.146.012v-7.551l-2.146-.029Zm-3.976-.024,3.639.024v-7.568l-3.639-.048Zm-506.035-1.286-19.23-.155c-.09,0-.167-.051-.167-.111v-8.271a.093.093,0,0,1,.053-.08.248.248,0,0,1,.119-.034l19.23.153c.09,0,.165.051.165.114v8.271a.1.1,0,0,1-.049.082.209.209,0,0,1-.116.031Zm-2.114-.245,1.952.015v-8.043l-1.952-.015Zm-5.893-.046,5.556.044v-8.043l-5.556-.046Zm-2.693-.022,2.356.019v-8.046l-2.356-.019Zm-2.312-.022,1.975.017v-8.043l-1.975-.012Zm-6.05-.046,5.708.044v-8.041l-5.708-.044Zm564.646-17.756-3.848-.056c-.092,0-.167-.053-.167-.114v-29.052a.1.1,0,0,1,.054-.082.2.2,0,0,1,.123-.031l3.853.085c.087,0,.157.053.157.114v29.023a.1.1,0,0,1-.049.082.209.209,0,0,1-.116.031Zm-1.192-.245,1.027.015v-28.8l-1.027-.024Zm-2.48-.036,2.144.031v-28.808l-2.144-.048Zm-509.851-2.612-4.952-.126c-.087,0-.159-.051-.159-.111v-30.947a.1.1,0,0,1,.051-.082.2.2,0,0,1,.123-.031l4.952.133c.09,0,.16.051.16.114v30.935a.094.094,0,0,1-.054.082.186.186,0,0,1-.118.034Zm-1.126-.257.964.024v-30.71l-.964-.024Zm-3.648-.09,3.312.082v-30.712l-3.312-.09Zm357.627-.3-39.761-.69c-.092,0-.164-.051-.164-.111v-8.884a.107.107,0,0,1,.053-.08.171.171,0,0,1,.119-.034l39.768.87c.092,0,.165.053.165.114v8.7a.1.1,0,0,1-.054.085.235.235,0,0,1-.118.031Zm-.681-.24.521.01v-8.474l-.521-.012Zm-6.413-.111,6.081.107v-8.479l-6.081-.133Zm-.813-.015.473.01v-8.508l-.473-.01Zm-.942-.017.607.012v-8.511l-.607-.015Zm-8.928-.155,8.588.148v-8.511l-8.588-.189Zm-.818-.012.477.01v-8.559l-.477-.01Zm-.892-.015.56.01v-8.562l-.56-.01Zm-9.294-.162,8.962.155v-8.564l-8.962-.194Zm-.846-.015.5.01v-8.608l-.5-.01Zm-.894-.017.56.012v-8.613l-.56-.012Zm-9.068-.153,8.731.148v-8.612l-8.731-.191Zm-47.828.727a.234.234,0,0,1-.118-.034.1.1,0,0,1-.051-.082v-8.8c0-.061.077-.114.169-.116l41.11-.584a.22.22,0,0,1,.126.034.092.092,0,0,1,.044.08v8.894c0,.063-.073.114-.165.116l-41.107.492Zm.173-8.8v8.571l.4,0v-8.574Zm.736-.012v8.576l11.909-.143v-8.6Zm12.249-.172v8.6l.649-.01v-8.6Zm.983-.015v8.6l.431,0v-8.605Zm.771-.012v8.605l11.549-.136v-8.634Zm11.883-.17v8.634l.686-.007v-8.634Zm1.027-.012v8.634l.393,0v-8.637Zm.731-.012v8.637l12.395-.148v-8.666Zm150.439,9.046a.206.206,0,0,1-.116-.034.1.1,0,0,1-.051-.08v-3.845c0-.061.073-.114.165-.114l12.118-.2a.216.216,0,0,1,.121.031.1.1,0,0,1,.051.082v3.949c0,.063-.07.114-.165.114l-12.118.094Zm.17-3.847v3.617l1.613-.01v-3.636Zm1.95-.034v3.636l9.831-.075v-3.721Zm-364.019,1.005a.22.22,0,0,1-.116-.034.1.1,0,0,1-.054-.082v-9.414c0-.063.075-.114.165-.116l50.585-.877a.177.177,0,0,1,.119.034.093.093,0,0,1,.051.08v9.516c0,.063-.07.114-.165.116l-50.577.778Zm.167-9.419v9.187l.548-.01v-9.189Zm.885-.017v9.189l8.12-.124v-9.206Zm8.46-.145v9.206l.712-.01v-9.211Zm1.049-.019v9.208l.509-.007v-9.211Zm.843-.015v9.211l11.387-.174v-9.235Zm11.724-.2v9.235l.676-.012v-9.238Zm1.018-.019v9.238l.472-.007v-9.24Zm.809-.015v9.24l11.689-.179v-9.264Zm12.021-.208v9.264l.7-.012v-9.264Zm1.039-.017v9.264l.594-.01v-9.264Zm.926-.015v9.264l11.474-.177v-9.288Zm56.475,10.013-37.518-.758c-.09,0-.16-.051-.16-.114v-9.458a.1.1,0,0,1,.049-.08.189.189,0,0,1,.124-.034l37.515.812c.087,0,.165.053.165.114v9.4a.1.1,0,0,1-.057.08.18.18,0,0,1-.116.034Zm-.812-.247.646.015V-2012l-.646-.012Zm-10.819-.216,10.482.208v-9.175l-10.482-.225Zm-.945-.017.608.01v-9.194l-.608-.012Zm-.937-.022.6.012v-9.192l-.6-.015Zm-10.616-.213,10.284.206v-9.194l-10.284-.223Zm-.947-.019.61.012v-9.211l-.61-.015Zm-.9-.019.566.012v-9.213l-.566-.012Zm-11.362-.225,11.025.218v-9.213l-11.025-.237Zm-222.17.819a.219.219,0,0,1-.116-.031.1.1,0,0,1-.053-.082v-4.23c0-.058.072-.111.164-.114l11.236-.213a.261.261,0,0,1,.126.034.109.109,0,0,1,.044.08v4.232c0,.058-.068.109-.16.111l-11.236.213Zm.167-4.23v4l2.253-.046v-4Zm2.588-.051v4l8.314-.155v-4ZM-8620-2012.1c-.092,0-.167-.053-.167-.116v-7.564a.11.11,0,0,1,.053-.082.217.217,0,0,1,.124-.031l14.276.366c.095,0,.165.048.165.114v7.433a.112.112,0,0,1-.051.087.269.269,0,0,1-.121.029Zm12.069-.029,2.05.034v-7.212l-2.05-.051Zm-3.7-.063,3.365.058v-7.234l-3.365-.085Zm-2.035-.034,1.7.029v-7.266l-1.7-.044Zm-2.348-.036,2.011.031v-7.285l-2.011-.048Zm-3.813-.065,3.472.058v-7.3l-3.472-.087Zm-45.5-.947-14.921-.245c-.092,0-.162-.053-.162-.114v-7.842a.092.092,0,0,1,.048-.08.223.223,0,0,1,.124-.034l14.926.38c.087,0,.165.053.165.114v7.706a.1.1,0,0,1-.056.085.242.242,0,0,1-.116.029Zm-2.311-.266,2.148.039v-7.481l-2.148-.056Zm-3.874-.061,3.532.056v-7.5l-3.532-.09Zm-2.127-.036,1.79.029v-7.537l-1.79-.046Zm-2.452-.041,2.115.036v-7.559l-2.115-.053Zm-3.982-.065,3.646.061v-7.578l-3.646-.094Zm-506.04-3.668-19.206-.339c-.093,0-.165-.053-.165-.114v-8.358a.113.113,0,0,1,.048-.085.264.264,0,0,1,.126-.031l19.212.5c.09,0,.16.056.16.116v8.2a.088.088,0,0,1-.051.08.18.18,0,0,1-.116.034Zm-2.078-.264,1.916.034v-7.973l-1.916-.051Zm-5.929-.1,5.6.1v-7.995l-5.6-.145Zm-2.7-.051,2.361.044v-8.043l-2.361-.058Zm-2.331-.039,2,.034v-8.063l-2-.053Zm-6-.107,5.661.1v-8.087l-5.661-.145Zm403.953-6.524-39.768-1.066c-.092,0-.157-.051-.157-.114v-8.881a.111.111,0,0,1,.053-.082.2.2,0,0,1,.119-.034l39.768,1.253c.092,0,.165.053.165.114v8.7a.1.1,0,0,1-.059.082.186.186,0,0,1-.113.029Zm-.681-.245.521.015v-8.474l-.521-.015Zm-6.451-.172,6.119.162v-8.477l-6.119-.189Zm-.771-.022.434.012v-8.506l-.434-.015Zm-.928-.024.6.015v-8.508l-.6-.022Zm-8.954-.24,8.612.23v-8.513l-8.612-.271Zm-.846-.024.511.015v-8.554l-.511-.017Zm-.911-.022.574.012v-8.557l-.574-.017Zm-9.286-.25,8.954.24v-8.564l-8.954-.279Zm-.766-.022.424.012v-8.605l-.424-.015Zm-.937-.027.6.019v-8.61l-.6-.022Zm-9.059-.24,8.72.23v-8.613l-8.72-.274Zm-47.828.991a.176.176,0,0,1-.111-.034.1.1,0,0,1-.058-.082v-8.8c0-.061.077-.114.162-.116l41.117-.85a.239.239,0,0,1,.126.034.092.092,0,0,1,.044.08v8.9c0,.058-.073.111-.165.114l-41.107.758Zm.173-8.806v8.574l.4-.007v-8.574Zm.743-.012v8.571l11.881-.216v-8.6Zm12.21-.252v8.6l.7-.012v-8.605Zm1.032-.024v8.605l.393-.007v-8.605Zm.729-.015v8.605l11.58-.213v-8.634Zm11.912-.247v8.632l.656-.012v-8.632Zm1-.022v8.634l.378,0v-8.639Zm.713-.015v8.639l12.438-.23v-8.666Zm-211.4,4.647a.207.207,0,0,1-.116-.034.106.106,0,0,1-.051-.082v-9.325c0-.063.072-.111.162-.114l50.5-1.286a.165.165,0,0,1,.121.031.112.112,0,0,1,.054.08v9.55c0,.063-.07.114-.165.114l-50.5,1.066Zm.17-9.332v9.1l.525-.01v-9.1Zm.862-.019v9.1l8.067-.172v-9.136Zm8.4-.216v9.138l.758-.017v-9.141Zm1.095-.029v9.146l.5-.012v-9.146Zm.838-.022v9.15l11.336-.242v-9.2Zm11.67-.3v9.2l.729-.015v-9.2Zm1.066-.029v9.206l.5-.01v-9.208Zm.838-.019v9.208l11.7-.247v-9.262Zm12.041-.308v9.262l.746-.017v-9.264Zm1.08-.027v9.264l.512-.01v-9.269Zm.849-.022v9.269l11.425-.24v-9.322Zm56.472,10.24-37.5-1.063c-.088,0-.163-.053-.163-.114v-9.475a.106.106,0,0,1,.054-.082.219.219,0,0,1,.124-.031l37.5,1.18c.09,0,.165.051.165.111v9.361a.1.1,0,0,1-.059.08.194.194,0,0,1-.114.034Zm-.771-.252.608.019v-9.131l-.608-.022Zm-10.921-.308,10.582.3v-9.131l-10.582-.334Zm-.885-.024.548.012v-9.165l-.548-.019Zm-.906-.027.569.017v-9.172l-.569-.019Zm-10.628-.3,10.291.291v-9.175l-10.291-.322Zm-.972-.029.635.019v-9.206l-.635-.022Zm-.848-.027.511.017v-9.209l-.511-.019Zm-11.392-.32,11.058.313v-9.211l-11.058-.349Zm372.891-1.715-3.811-.068c-.09,0-.163-.053-.163-.116v-29.1a.1.1,0,0,1,.054-.08.221.221,0,0,1,.126-.031l3.809.15c.087,0,.157.053.157.114v29.016a.1.1,0,0,1-.051.082.215.215,0,0,1-.119.031Zm-1.142-.247.977.019v-28.8l-.977-.036Zm-2.49-.046,2.151.039v-28.82l-2.151-.087Zm-509.872-5.056-4.944-.145c-.09,0-.16-.048-.16-.114V-2069.2a.1.1,0,0,1,.051-.085.209.209,0,0,1,.126-.031l4.942.165c.09,0,.16.053.16.114v30.947a.1.1,0,0,1-.049.082.211.211,0,0,1-.123.034Zm-1.126-.264.964.029v-30.722l-.964-.029Zm-3.642-.1,3.3.094v-30.724l-3.3-.109Zm552.928-9.822-14.086-.523c-.087,0-.157-.056-.157-.114v-7.588a.108.108,0,0,1,.054-.082.236.236,0,0,1,.126-.029l14.083.63c.087,0,.157.053.157.114v7.479a.1.1,0,0,1-.056.087.194.194,0,0,1-.114.029Zm-2.12-7.386v7.081l1.96.073v-7.239Zm-3.714,6.943,3.38.128v-7.074l-3.38-.17Zm-1.981-.075,1.645.063v-7.3l-1.645-.075Zm-2.379-7.249v7.159l2.047.08v-7.3Zm-3.712,7.021,3.372.128v-7.152l-3.372-.121Zm-181.4-.8-39.768-1.458c-.092,0-.157-.053-.157-.116v-8.879a.1.1,0,0,1,.053-.082.2.2,0,0,1,.126-.034l39.768,1.643c.085,0,.158.053.158.114v8.7a.1.1,0,0,1-.059.085.2.2,0,0,1-.113.031Zm-.645-.254.484.019v-8.472l-.484-.022Zm-6.471-.235,6.129.225v-8.477l-6.129-.254Zm-.8-.029.463.017v-8.506l-.463-.019Zm-.9-.034.566.022v-8.511l-.566-.024Zm-8.977-.329,8.635.315v-8.513l-8.635-.354Zm-.8-.027.47.017v-8.559l-.47-.017Zm-.892-.036.56.022v-8.559l-.56-.022Zm-9.3-.339,8.961.327v-8.562l-8.961-.371Zm-.819-.029.478.017v-8.605l-.478-.022Zm-.923-.034.591.02v-8.608l-.591-.024Zm-9.059-.332,8.722.32v-8.615l-8.722-.359Zm-47.828,1.243a.233.233,0,0,1-.118-.034.1.1,0,0,1-.051-.082v-8.8c0-.061.072-.109.162-.116l41.117-1.1a.219.219,0,0,1,.126.029.1.1,0,0,1,.044.082v8.894c0,.065-.065.114-.155.114l-41.117,1.013Zm.173-8.8v8.572l.426-.012v-8.574Zm.766-.022v8.574l11.849-.288v-8.605Zm12.181-.325v8.6l.669-.017v-8.6Zm1-.031v8.608l.452-.015v-8.6Zm.787-.019v8.608l11.575-.286v-8.632Zm11.914-.32v8.634l.643-.014v-8.637Zm.977-.024v8.634l.4-.01v-8.639Zm.744-.022v8.637l12.406-.3v-8.666Zm194.675,9.211-14.844-.557c-.087,0-.157-.051-.157-.114V-2059a.094.094,0,0,1,.053-.082.256.256,0,0,1,.126-.029l14.842.666c.085,0,.157.051.157.111v7.719a.1.1,0,0,1-.056.08.2.2,0,0,1-.111.034Zm-2.246-7.619v7.307l2.084.077v-7.474Zm-3.912,7.159,3.573.136v-7.3l-3.573-.184Zm-2.084-.077,1.747.065v-7.537l-1.747-.08Zm-2.517-7.486v7.392l2.178.082v-7.539Zm-3.905,7.244,3.57.133v-7.377l-3.57-.131Zm-391.438-5.238a.206.206,0,0,1-.116-.029.113.113,0,0,1-.051-.082v-9.327c0-.061.072-.112.162-.114l50.5-1.645a.207.207,0,0,1,.126.031.113.113,0,0,1,.054.08v9.55c0,.063-.07.112-.162.114l-50.506,1.422Zm.17-9.327v9.1l.547-.017v-9.1Zm.884-.031v9.1l8.1-.23v-9.136Zm8.436-.274v9.138l.654-.017v-9.143Zm.991-.034v9.146l.591-.015v-9.148Zm.923-.029v9.148l11.321-.317v-9.2Zm11.66-.38v9.2l.674-.019v-9.206Zm1.008-.031v9.2l.569-.017v-9.206Zm.906-.031v9.208l11.7-.33v-9.257Zm12.033-.39v9.26l.717-.02v-9.264Zm1.054-.036v9.267l.466-.012v-9.271Zm.807-.027v9.271l11.467-.324v-9.32Zm56.514,10.519-37.5-1.425c-.09,0-.16-.053-.16-.114v-9.475a.1.1,0,0,1,.054-.082.221.221,0,0,1,.126-.031l37.5,1.538c.088,0,.163.053.163.111v9.361a.1.1,0,0,1-.059.083.194.194,0,0,1-.114.034Zm-.826-.262.664.024v-9.131l-.664-.027Zm-10.858-.412,10.52.4V-2066l-10.52-.431Zm-.913-.034.576.022v-9.17l-.576-.024Zm-.885-.036.548.024v-9.172l-.548-.022Zm-10.645-.4,10.308.39v-9.172l-10.308-.424Zm-.924-.034.587.02v-9.2l-.587-.024Zm-.894-.036.558.024v-9.211l-.558-.024Zm-11.377-.431,11.043.419v-9.211l-11.043-.453Zm-172.721,1.11-19.163-.627c-.092,0-.162-.053-.162-.114v-8.37a.1.1,0,0,1,.053-.083.229.229,0,0,1,.126-.029l19.164.756c.087,0,.157.053.157.114v8.239a.1.1,0,0,1-.054.083.2.2,0,0,1-.116.031Zm-1.986-8.1v7.808l1.824.058v-7.992Zm-6,7.614,5.667.184v-7.794l-5.667-.213Zm-2.667-.092,2.335.083v-8.073l-2.335-.092Zm-2.3-7.915v7.844l1.965.063v-8.07Zm-6.03,7.646,5.7.184v-7.83l-5.7-.247Zm11-7.687,5.829.22.082,0-5.911-.238Zm-11-.438,5.858.259.383-.029-6.241-.247Zm564.619-3.426-3.822-.085c-.088,0-.16-.051-.16-.114v-29.1a.1.1,0,0,1,.056-.083.208.208,0,0,1,.121-.031l3.823.189c.087,0,.152.056.152.114v29a.089.089,0,0,1-.049.082.229.229,0,0,1-.116.031Zm-1.173-.252,1.006.019v-28.774l-1.006-.048Zm-2.473-.056,2.137.048V-2098.6l-2.137-.107Zm-157.032-5.042-39.763-1.909c-.092,0-.157-.051-.157-.111v-8.882a.11.11,0,0,1,.053-.085.2.2,0,0,1,.126-.029l39.768,2.086c.085,0,.158.056.158.114v8.7a.1.1,0,0,1-.059.082.223.223,0,0,1-.113.031Zm-.7-.261.545.022v-8.472l-.545-.027Zm-6.4-.308,6.059.293v-8.479l-6.059-.32Zm-.831-.039.5.022v-8.506l-.5-.024Zm-.892-.044.558.024v-8.506l-.558-.031Zm-8.985-.431,8.651.414v-8.513l-8.651-.456Zm-.834-.039.5.019v-8.552l-.5-.024Zm-.9-.044.56.024v-8.557l-.56-.027Zm-9.276-.446,8.944.429v-8.559l-8.944-.472Zm-.79-.036.458.019v-8.605l-.458-.022Zm-.91-.046.578.029v-8.608l-.578-.031Zm-9.071-.431,8.731.417v-8.61l-8.731-.463Zm-47.828,1.614a.176.176,0,0,1-.111-.031.1.1,0,0,1-.058-.083v-8.8c0-.058.072-.111.162-.114l41.117-1.478a.213.213,0,0,1,.119.031.089.089,0,0,1,.051.082v8.9c0,.058-.065.109-.155.114l-41.117,1.381Zm.173-8.806v8.571l.4-.012v-8.574Zm.733-.027v8.576l11.866-.4v-8.6Zm12.208-.436v8.6l.635-.024v-8.6Zm.974-.036v8.6l.478-.017v-8.6Zm.81-.029v8.608l11.585-.39v-8.634Zm11.924-.427v8.632l.635-.022v-8.634Zm.977-.036v8.635l.409-.015v-8.634Zm.744-.027v8.637l12.406-.417v-8.666Zm150.437,8.615a.205.205,0,0,1-.116-.031.1.1,0,0,1-.053-.082v-3.874c0-.061.075-.111.162-.114l12.145-.417a.236.236,0,0,1,.126.029.112.112,0,0,1,.054.087v3.929c0,.058-.07.111-.157.114l-12.152.359Zm.17-.233,1.613-.048v-3.443l-1.613-.136Zm1.95-3.484v3.426l9.86-.293v-3.491Zm-.165-.223.095,0Zm-446.386,3.246-4.928-.17c-.09,0-.16-.056-.16-.114v-31.051a.1.1,0,0,1,.051-.082.222.222,0,0,1,.126-.031l4.931.23c.092,0,.157.051.157.114v30.988a.1.1,0,0,1-.051.087.264.264,0,0,1-.121.029Zm-1.142-30.894v30.627l.981.034v-30.746Zm-3.609,30.5,3.275.114v-30.61l-3.275-.16Zm87.206-5.783a.1.1,0,0,1-.056-.08v-9.33c0-.056.07-.109.157-.114l50.5-2.117a.258.258,0,0,1,.126.027.112.112,0,0,1,.054.085v9.55c0,.058-.07.112-.157.114l-50.506,1.9-.012,0A.184.184,0,0,1-9071.613-2083.467Zm.281-9.3v9.1l.535-.022v-9.1Zm.874-.039v9.1l8.143-.305v-9.138Zm8.484-.356v9.141l.669-.024v-9.143Zm1-.041v9.146l.5-.019v-9.146Zm.836-.034v9.146l11.348-.427v-9.2Zm11.685-.492v9.2l.7-.029v-9.2Zm1.037-.046v9.206l.523-.017v-9.208Zm.862-.034v9.208l11.743-.441v-9.262Zm12.082-.506v9.259l.686-.024v-9.264Zm1.022-.044v9.267l.479-.019v-9.267Zm.816-.034v9.269l11.464-.429v-9.323Zm56.506,10.883-37.5-1.9c-.085,0-.155-.053-.155-.114v-9.47a.091.091,0,0,1,.059-.085.219.219,0,0,1,.126-.029l37.493,2.011c.09,0,.16.053.16.112v9.364a.114.114,0,0,1-.059.082.223.223,0,0,1-.114.029Zm-.841-.271.684.036v-9.134l-.684-.036Zm-10.831-.55,10.492.533v-9.133l-10.492-.564Zm-.9-.043.558.029v-9.167l-.558-.031Zm-.93-.049.593.031v-9.17l-.593-.031Zm-10.6-.535,10.268.519v-9.172l-10.268-.55Zm-.94-.046.6.029v-9.206l-.6-.031Zm-.879-.049.543.029v-9.208l-.543-.027Zm-11.392-.574,11.058.56v-9.211l-11.058-.594Zm407.619,1.085-14.194-.739c-.087,0-.157-.051-.157-.114v-7.641a.119.119,0,0,1,.058-.09.2.2,0,0,1,.126-.024l14.2.906c.085,0,.15.053.15.114v7.474a.094.094,0,0,1-.054.083.24.24,0,0,1-.111.031Zm-2.192-7.355v7.011l2.035.1v-7.224Zm-3.7,6.82,3.367.174v-7l-3.367-.235Zm-1.989-.1,1.652.085v-7.321l-1.652-.1Zm-2.318-7.173v7.055l1.979.1v-7.324Zm-3.809,6.856,3.472.184v-7.038l-3.472-.23Zm8.116-6.866,3.539.247.422-.022-3.961-.254Zm-8.116-.453,3.637.245.734-.061-4.371-.281Zm-615.747,7.845a.224.224,0,0,1-.116-.034.1.1,0,0,1-.051-.08v-4.189c0-.061.07-.109.157-.114l11.174-.468a.226.226,0,0,1,.123.029.1.1,0,0,1,.054.085v4.225c0,.063-.065.111-.155.116l-11.176.429Zm.17-.235,2.2-.087V-2089l-2.2-.145Zm2.544-3.8v3.7l8.295-.317v-3.724Zm-.587-.245.417.027,8.465-.356v-.044Zm568.1,1.468-14.933-.768c-.085,0-.16-.056-.16-.114v-7.888a.106.106,0,0,1,.061-.085.224.224,0,0,1,.131-.027l14.929.947c.087,0,.155.056.155.114v7.707a.1.1,0,0,1-.054.085.256.256,0,0,1-.116.029Zm-2.315-7.581v7.232l2.161.111v-7.459Zm-3.9,7.033,3.562.182v-7.219l-3.562-.247Zm-2.088-.107,1.751.09v-7.561l-1.751-.111Zm-2.437-7.411v7.285l2.1.109v-7.561Zm-4.012,7.079,3.67.187v-7.261l-3.67-.242Zm8.537-7.074,3.733.259.533-.031-4.267-.269Zm-8.537-.472,3.842.254.844-.07-4.686-.3Zm-505.957-.608-19.272-.824c-.087-.007-.157-.058-.157-.116v-8.387a.1.1,0,0,1,.051-.082.227.227,0,0,1,.131-.031l19.274.983c.087,0,.152.053.152.114v8.23a.088.088,0,0,1-.056.08.177.177,0,0,1-.111.034Zm-2.241-8.06v7.736l2.084.087v-7.98Zm-5.892,7.484,5.558.237v-7.719l-5.558-.332Zm-2.624-.114,2.287.1v-8.075l-2.287-.114Zm-2.277-7.925v7.825l1.936.085v-8.068Zm-6.059,7.566,5.722.247v-7.806l-5.722-.312Zm10.96-7.571,5.725.344.623-.046-6.348-.322Zm-10.96-.531,5.887.32.563-.043-6.449-.327Zm316.536,5.294a.192.192,0,0,1-.111-.031.09.09,0,0,1-.058-.083v-8.8c0-.061.072-.109.162-.114l41.112-1.7a.207.207,0,0,1,.124.031.092.092,0,0,1,.051.082v8.9c0,.061-.065.109-.155.114l-41.117,1.6Zm.173-8.8v8.569l.358-.012.1-8.579Zm.8-.036-.1,8.579,11.893-.465v-8.6Zm12.13-.5v8.6l.661-.022v-8.605Zm1-.039v8.605l.448-.019v-8.605Zm.78-.031v8.605l11.585-.451v-8.634Zm11.917-.494v8.634l.645-.027v-8.635Zm.983-.036v8.632l.393-.017v-8.632Zm.728-.031v8.637l12.438-.49v-8.663Zm219.592,4.341-3.874-.194c-.087,0-.155-.053-.155-.114v-29.13a.1.1,0,0,1,.061-.087.207.207,0,0,1,.131-.027l3.871.346c.083.01.146.058.146.114v28.978a.091.091,0,0,1-.048.082.232.232,0,0,1-.117.031Zm-1.229-28.917v28.628l1.07.051v-28.73Zm-2.459,28.5,2.122.107v-28.616l-2.122-.162Zm-427.3-3.549a.231.231,0,0,1-.116-.029.118.118,0,0,1-.051-.085v-9.325c0-.061.07-.112.157-.114l50.5-2.52a.238.238,0,0,1,.128.027.112.112,0,0,1,.054.085v9.55c0,.058-.07.112-.157.114l-50.506,2.3Zm.17-9.332v9.094l.566-.024v-9.1Zm.9-.049v9.1l8.089-.368v-9.138Zm8.431-.417v9.136l.69-.029v-9.143Zm1.027-.056v9.146l.509-.022v-9.148Zm.846-.041v9.15l11.4-.521v-9.2Zm11.735-.584v9.2l.678-.029v-9.2Zm1.015-.051v9.2l.473-.022v-9.206Zm.807-.044v9.211l11.748-.535v-9.26Zm12.087-.6v9.262l.676-.031v-9.264Zm1.013-.051v9.267l.5-.022v-9.269Zm.841-.041v9.269l11.464-.521v-9.32Zm-121.385,4.952-4.967-.208c-.092,0-.157-.053-.157-.114v-31.061a.1.1,0,0,1,.054-.083.212.212,0,0,1,.133-.031l4.964.327c.085.007.15.056.15.116v30.94a.1.1,0,0,1-.051.083.21.21,0,0,1-.116.031Zm-1.189-30.828v30.55l1.029.041v-30.688Zm-3.6,30.4,3.261.138v-30.53l-3.261-.182Zm0-30.8,2.439.136-2.439-.16Zm552.853,27.081-14.057-.979c-.09,0-.152-.053-.152-.114v-7.66a.114.114,0,0,1,.056-.087.252.252,0,0,1,.131-.029l14.056,1.078c.085.007.15.061.15.116v7.563a.09.09,0,0,1-.056.08.2.2,0,0,1-.111.031Zm-2.13-7.413v7.035l1.977.138v-7.312Zm-3.7,6.776,3.367.235v-7.011l-3.367-.283Zm-1.96-.133,1.623.111v-7.375l-1.623-.126Zm-2.307-7.219v7.057l1.973.138V-2129Zm-3.771,6.793,3.433.24v-7.033l-3.433-.267Zm8.038-6.728,3.537.3.736-.056-4.273-.322Zm-8.038-.562,3.6.286.9-.083-4.5-.342Zm-45.563,4.259-14.87-1.037c-.085-.007-.147-.053-.147-.114v-7.8a.1.1,0,0,1,.056-.087.231.231,0,0,1,.131-.027l14.865,1.139c.087.007.152.056.152.114v7.7a.1.1,0,0,1-.056.083.192.192,0,0,1-.113.031Zm-2.263-7.542v7.154l2.11.145v-7.447Zm-3.912,6.883,3.573.247v-7.132l-3.573-.3Zm-2.074-.145,1.732.121v-7.517l-1.732-.133Zm-2.442-7.345v7.176l2.1.146v-7.5Zm-3.989,6.9,3.653.254v-7.152l-3.653-.286Zm8.506-6.822,3.745.315.872-.061-4.617-.354Zm-8.506-.591,3.817.3,1.035-.09-4.853-.368Zm-121.141,8.3-39.771-2.621c-.084-.007-.149-.056-.149-.116v-8.882a.118.118,0,0,1,.053-.087.275.275,0,0,1,.134-.027l39.768,2.805c.085.007.15.058.15.116v8.7a.094.094,0,0,1-.059.082.186.186,0,0,1-.113.031Zm-.7-8.581v8.31l.545.034v-8.421Zm-6.441,7.883,6.1.4V-2134l-6.1-.475Zm-.785-.053.445.029v-8.506l-.445-.031Zm-.884-8.395v8.336l.55.039v-8.467Zm-8.947,7.745,8.605.569v-8.281l-8.605-.652Zm-.841-.053.507.029v-8.55l-.507-.036Zm-.942-8.438v8.37l.61.044v-8.516Zm-9.257,7.762,8.923.591v-8.336l-8.923-.678Zm-.746-.049.414.029v-8.608l-.414-.029Zm-.981-8.479v8.414l.646.041v-8.562Zm-9.059,7.815,8.722.577v-8.37l-8.722-.649Zm30.507-6.5h.017l-.688-.048Zm-21.671-1.519.051-.007-3.486-.25Zm-56.664,10.136a.192.192,0,0,1-.111-.029.108.108,0,0,1-.058-.083v-8.8c0-.058.072-.106.162-.111l41.112-1.987a.22.22,0,0,1,.124.029.088.088,0,0,1,.051.085v8.894c0,.058-.065.112-.15.114l-41.115,1.892Zm.173-.235.4-.019v-8.45l-.4-.065Zm.736-8.453v8.419l11.871-.547v-8.446Zm12.205-.744v8.6l.717-.034v-8.6Zm1.052,8.55.36-.015v-8.511l-.36-.046Zm.7-8.494v8.465l11.585-.533v-8.47Zm11.927-.719v8.634l.681-.034v-8.632Zm1.02,8.586.368-.017v-8.535l-.368-.049Zm.7-8.521v8.489l12.438-.572v-8.545Zm-326.034-.463-19.277-1.194c-.085,0-.152-.056-.152-.114v-8.373a.1.1,0,0,1,.059-.085.217.217,0,0,1,.128-.029l19.274,1.252c.085,0,.15.056.15.114v8.314a.108.108,0,0,1-.051.085.236.236,0,0,1-.116.029Zm-2.06-8.067V-2137l1.909.116v-8.053Zm-6,7.338,5.662.354v-7.685l-5.662-.414Zm-2.611-.162,2.27.14v-8.111l-2.27-.148Zm-2.3-7.915v7.772l1.97.121v-8.089Zm-6.117,7.391,5.785.361v-7.748l-5.785-.412Zm11.03-7.287,5.826.427,1-.119-6.822-.443Zm-11.03-.741,5.945.424.918-.09-6.863-.448Zm133.73,8.683a.2.2,0,0,1-.111-.031.1.1,0,0,1-.056-.083v-9.325c0-.063.067-.109.152-.114l50.508-2.851a.241.241,0,0,1,.128.029.1.1,0,0,1,.054.082v9.55c0,.058-.07.109-.157.114l-50.5,2.629Zm.17-9.335v9.1l.525-.029v-9.1Zm.862-.051v9.1l8.108-.422v-9.136Zm8.445-.477v9.141l.731-.039v-9.143Zm1.068-.061v9.146l.473-.024v-9.146Zm.809-.043v9.148l11.433-.594v-9.2Zm11.772-.664v9.2l.646-.034v-9.2Zm.983-.058v9.2l.489-.024v-9.206Zm.826-.043v9.208l11.7-.611v-9.262Zm12.033-.681v9.262l.722-.039v-9.264Zm1.059-.061v9.267l.519-.027v-9.271Zm.855-.048v9.271l11.454-.6v-9.323Zm392.077,5.657-3.847-.293c-.08,0-.146-.049-.146-.112v-29.118a.1.1,0,0,1,.059-.085.252.252,0,0,1,.13-.027l3.845.332c.08.007.144.056.144.112v29.079a.093.093,0,0,1-.056.085.219.219,0,0,1-.109.029Zm-1.187-28.934v28.619l1.034.078v-28.82Zm-2.467,28.43,2.127.162V-2172.2l-2.127-.228Zm2.295-28.645.228-.024-2.522-.22Zm-67.765,18.865a.227.227,0,0,1-.116-.031.1.1,0,0,1-.053-.083v-3.825c0-.056.067-.109.154-.114l12.2-.708a.288.288,0,0,1,.134.029.112.112,0,0,1,.051.082v3.978c0,.061-.068.111-.155.114l-12.208.557Zm.167-.238,1.621-.07v-3.358l-1.621-.143Zm1.963-3.423v3.336l9.906-.453v-3.414Zm-.555-.254.385.036,10.076-.542v-.1Zm-445.982,1.439-4.941-.264c-.088,0-.155-.056-.155-.114v-31.1a.106.106,0,0,1,.061-.087.2.2,0,0,1,.128-.024l4.942.448c.087.007.146.053.146.112v30.918a.112.112,0,0,1-.051.085.273.273,0,0,1-.121.027Zm-1.1-30.8v30.509l.939.053v-30.659Zm-3.663,30.312,3.326.179v-30.492l-3.326-.337Zm3.493-30.525.1-.01-1.921-.177Zm549.471,29.842-14.148-1.151c-.085-.007-.146-.053-.146-.112v-7.711a.1.1,0,0,1,.056-.085.239.239,0,0,1,.133-.024l14.148,1.25c.083.007.144.056.144.112v7.607a.112.112,0,0,1-.054.085.237.237,0,0,1-.111.031Zm-2.151-7.416v7.011l2,.162v-7.35Zm-3.673,6.713,3.341.269v-6.985l-3.341-.332Zm-1.958-.16,1.623.133v-7.423l-1.623-.143Zm-2.354-7.282v7.091l2.016.165v-7.408Zm-3.82,6.783,3.483.283v-7.069l-3.483-.3Zm8.133-6.621,3.508.351,1.022-.09-4.53-.4Zm-8.133-.69,3.65.313.96-.075-4.61-.407Zm-45.57,3.556-14.9-1.209c-.082-.007-.147-.056-.147-.114v-7.854a.1.1,0,0,1,.061-.087.214.214,0,0,1,.131-.027l14.9,1.318c.088.007.148.058.148.114v7.745a.1.1,0,0,1-.059.087.194.194,0,0,1-.106.027Zm-2.271-7.544v7.132l2.12.172v-7.489Zm-3.874,6.817,3.537.286v-7.1l-3.537-.351Zm-2.059-.167,1.728.138v-7.563l-1.728-.153Zm-2.481-7.418v7.217l2.143.172v-7.549Zm-4.028,6.887,3.689.3v-7.188l-3.689-.312Zm8.568-6.7,3.707.366,1.15-.1-4.857-.426Zm-8.568-.729,3.856.327,1.086-.083-4.942-.438Zm-555.5,4.026a.23.23,0,0,1-.116-.031.1.1,0,0,1-.051-.082v-4.073c0-.058.061-.109.15-.114l11.238-.826a.2.2,0,0,1,.126.027.1.1,0,0,1,.061.085v4.208c0,.056-.067.109-.16.114l-11.233.693Zm.17-.24,2.188-.133v-3.556l-2.187-.133Zm2.526-3.69v3.535l8.373-.516v-3.585Zm-.983-.271.812.053,8.545-.577v-.165Zm47.853-5.051-19.272-1.463c-.085-.007-.152-.058-.152-.114v-8.387a.11.11,0,0,1,.061-.087.261.261,0,0,1,.133-.027l19.27,1.567c.088.007.15.053.15.114v8.283a.107.107,0,0,1-.056.087.211.211,0,0,1-.111.029Zm-2.125-8.084v7.7l1.977.145v-8.026Zm-6,7.239,5.659.431v-7.67l-5.659-.443Zm-2.646-.2,2.306.179v-8.1l-2.306-.189Zm-2.277-7.881v7.709l1.94.148v-8.082Zm-6.037,7.251,5.7.431v-7.677l-5.7-.5Zm10.96-7.079,5.828.458.989-.09-6.817-.557Zm-10.96-.9,5.865.513,1.111-.131-6.977-.567Zm564.58,5.931-3.857-.407c-.079-.01-.143-.056-.143-.112v-29.113a.1.1,0,0,1,.061-.087.236.236,0,0,1,.136-.027l3.859.429c.08.01.136.058.136.114v29.091a.1.1,0,0,1-.056.085.218.218,0,0,1-.109.029Zm-1.189-28.992v28.638l1.047.109v-28.83Zm-2.472,28.376,2.135.223v-28.6l-2.135-.225Zm0-28.834,2.307.242.175-.015-2.481-.276Zm38.419,16.028-14.142-1.386c-.079-.01-.143-.058-.143-.114v-7.733a.1.1,0,0,1,.063-.087.207.207,0,0,1,.133-.027l14.139,1.5c.082.007.138.056.138.111v7.627a.093.093,0,0,1-.053.085.237.237,0,0,1-.109.029Zm-2.229-7.423v6.975l2.088.206v-7.365Zm-3.586,6.624,3.249.317v-6.946l-3.249-.424Zm-1.97-.194,1.636.16v-7.442l-1.636-.172Zm-2.382-7.258v7.023l2.043.2v-7.426Zm-3.781,6.655,3.447.337v-6.994l-3.447-.393Zm8.133-6.488,3.421.448,1.243-.111-4.664-.494Zm-8.133-.792,3.617.412,1.24-.121-4.857-.513Zm-534.283,7.086-4.966-.371c-.088-.007-.15-.056-.15-.114v-31.119a.1.1,0,0,1,.056-.087.244.244,0,0,1,.138-.027l4.965.521c.084.007.143.058.143.114v30.969a.093.093,0,0,1-.056.082.194.194,0,0,1-.111.031Zm-1.162-30.855v30.538l1.01.078v-30.712Zm-3.617,30.269,3.28.245v-30.513l-3.28-.3Zm0-30.8,3.449.313.2-.017-3.648-.385Zm493.42,27.153-14.895-1.463c-.08,0-.141-.056-.141-.109v-7.828a.111.111,0,0,1,.056-.082.232.232,0,0,1,.136-.029l14.9,1.577c.077.007.138.058.138.111v7.711a.107.107,0,0,1-.056.085.223.223,0,0,1-.111.027Zm-2.355-7.5v7.031l2.215.223v-7.45Zm-3.779,6.662,3.443.337v-7l-3.443-.451Zm-2.073-.2,1.741.17v-7.525l-1.741-.187Zm-2.508-7.329v7.084l2.171.216v-7.515Zm-3.982,6.694,3.646.356v-7.052l-3.646-.419Zm8.563-6.512,3.615.475,1.368-.121-4.983-.526Zm-8.563-.833,3.817.431,1.369-.131-5.187-.547Zm-506.032-7.573-19.231-1.667c-.085-.007-.147-.053-.147-.112v-8.472a.112.112,0,0,1,.058-.085.2.2,0,0,1,.131-.027l19.236,1.836c.08.007.143.056.143.112v8.3a.114.114,0,0,1-.056.09.27.27,0,0,1-.111.024Zm-2.12-8.087v7.675l1.972.17v-8.038Zm-5.931,7.161,5.589.485v-7.646l-5.589-.564Zm-2.606-.225,2.27.194v-8.143l-2.27-.218Zm-2.348-7.934v7.731l2.011.172v-8.133Zm-6.037,7.208,5.705.494v-7.7l-5.705-.54Zm10.991-7,5.759.581,1.127-.111-6.886-.659Zm-10.991-.969,5.865.552,1.25-.141-7.115-.681Z" transform="translate(9653.285 2429.909)" fill="#28345a" stroke="rgba(0,0,0,0)" stroke-miterlimit="10" stroke-width="1"/>
  </g>
</svg>
