<svg xmlns="http://www.w3.org/2000/svg" width="891" height="502" viewBox="0 0 891 502"><g transform="translate(-1004 -462)"><rect width="884" height="498" transform="translate(1011 465)" fill="none"/><text transform="translate(1249 961)" fill="#202020" font-size="14" font-family="CeraPro-Regular, Cera Pro"><tspan x="-27.055" y="0">sample2</tspan></text><text transform="translate(1462 961)" fill="#202020" font-size="14" font-family="CeraPro-Regular, Cera Pro"><tspan x="-26.901" y="0">sample3</tspan></text><text transform="translate(1674 961)" fill="#202020" font-size="14" font-family="CeraPro-Regular, Cera Pro"><tspan x="-25.788" y="0">sample1</tspan></text><text transform="translate(1027 473)" fill="#a3a3a3" font-size="14" font-family="CeraPro-Regular, Cera Pro"><tspan x="-22.526" y="0">100</tspan></text><text transform="translate(1027 525)" fill="#a3a3a3" font-size="14" font-family="CeraPro-Regular, Cera Pro"><tspan x="-16.324" y="0">90</tspan></text><text transform="translate(1027 578)" fill="#a3a3a3" font-size="14" font-family="CeraPro-Regular, Cera Pro"><tspan x="-16.702" y="0">80</tspan></text><text transform="translate(1027 630)" fill="#a3a3a3" font-size="14" font-family="CeraPro-Regular, Cera Pro"><tspan x="-15.204" y="0">70</tspan></text><text transform="translate(1027 683)" fill="#a3a3a3" font-size="14" font-family="CeraPro-Regular, Cera Pro"><tspan x="-16.324" y="0">60</tspan></text><text transform="translate(1027 735)" fill="#a3a3a3" font-size="14" font-family="CeraPro-Regular, Cera Pro"><tspan x="-16.38" y="0">50</tspan></text><text transform="translate(1027 788)" fill="#a3a3a3" font-size="14" font-family="CeraPro-Regular, Cera Pro"><tspan x="-16.282" y="0">40</tspan></text><text transform="translate(1027 840)" fill="#a3a3a3" font-size="14" font-family="CeraPro-Regular, Cera Pro"><tspan x="-16.142" y="0">30</tspan></text><text transform="translate(1027 893)" fill="#a3a3a3" font-size="14" font-family="CeraPro-Regular, Cera Pro"><tspan x="-16.45" y="0">20</tspan></text><text transform="translate(1027 945)" fill="#a3a3a3" font-size="14" font-family="CeraPro-Regular, Cera Pro"><tspan x="-13.916" y="0">10</tspan></text><path d="M1037,943V470" fill="none" stroke="#f0f0f0" stroke-width="1"/><path d="M1249,943V470" fill="none" stroke="#918f8f" stroke-width="3" stroke-dasharray="5"/><path d="M1037,470h850" fill="none" stroke="#f0f0f0" stroke-width="1"/><path d="M1037,522h850" fill="none" stroke="#f0f0f0" stroke-width="1"/><path d="M1037,575h850" fill="none" stroke="#f0f0f0" stroke-width="1"/><path d="M1037,627h850" fill="none" stroke="#f0f0f0" stroke-width="1"/><path d="M1037,680h850" fill="none" stroke="#f0f0f0" stroke-width="1"/><path d="M1037,732h850" fill="none" stroke="#f0f0f0" stroke-width="1"/><path d="M1037,785h850" fill="none" stroke="#f0f0f0" stroke-width="1"/><path d="M1037,837h850" fill="none" stroke="#f0f0f0" stroke-width="1"/><path d="M1037,890h850" fill="none" stroke="#f0f0f0" stroke-width="1"/><path d="M1037,942h850" fill="none" stroke="#f0f0f0" stroke-width="1"/><path d="M1037,475s106,347,212,347,106-242,213-242c106,0,106,58,212,58s213-105,213-105" fill="none" stroke="#ffa630" stroke-linecap="round" stroke-linejoin="round" stroke-width="3"/><path d="M1033,475.256a4,4,0,1,0,4-4,4,4,0,0,0-4,4" fill="#ffa630"/><path d="M1245.5,822.122a4,4,0,1,0,4-4,4,4,0,0,0-4,4" fill="#ffa630"/><path d="M1458,580.367a4,4,0,1,0,4-4,4,4,0,0,0-4,4" fill="#ffa630"/><path d="M1670.5,638.178a4,4,0,1,0,4-4,4,4,0,0,0-4,4" fill="#ffa630"/><path d="M1883,533.067a4,4,0,1,0,4-4,4,4,0,0,0-4,4" fill="#ffa630"/><path d="M1037,548s106,347,212,347,106,11,213,11c106,0,106-352,212-352s213,210,213,210" fill="none" stroke="#08a4ed" stroke-linecap="round" stroke-linejoin="round" stroke-width="3"/><path d="M1033,548.833a4,4,0,1,0,4-4,4,4,0,0,0-4,4" fill="#08a4ed"/><path d="M1245.5,895.7a4,4,0,1,0,4-4,4,4,0,0,0-4,4" fill="#08a4ed"/><path d="M1458,906.211a4,4,0,1,0,4-4,4,4,0,0,0-4,4" fill="#08a4ed"/><path d="M1670.5,554.089a4,4,0,1,0,4-4,4,4,0,0,0-4,4" fill="#08a4ed"/><path d="M1883,764.311a4,4,0,1,0,4-4,4,4,0,0,0-4,4" fill="#08a4ed"/></g></svg>