<svg xmlns="http://www.w3.org/2000/svg" width="885" height="498" viewBox="0 0 885 498"><g transform="translate(-244 -156)"><rect width="880" height="494" transform="translate(249 159)" fill="none"/><text transform="translate(483 651)" fill="#202020" font-size="14" font-family="CeraPro-Regular, Cera Pro"><tspan x="-13.384" y="0">Test</tspan></text><text transform="translate(696 651)" fill="#202020" font-size="14" font-family="CeraPro-Regular, Cera Pro"><tspan x="-24.29" y="0">Control</tspan></text><text transform="translate(908 651)" fill="#202020" font-size="14" font-family="CeraPro-Regular, Cera Pro"><tspan x="-33.852" y="0">Combined</tspan></text><text transform="translate(261 167)" fill="#a3a3a3" font-size="14" font-family="CeraPro-Regular, Cera Pro"><tspan x="-15.204" y="0">70</tspan></text><text transform="translate(261 206)" fill="#a3a3a3" font-size="14" font-family="CeraPro-Regular, Cera Pro"><tspan x="-15.484" y="0">65</tspan></text><text transform="translate(261 245)" fill="#a3a3a3" font-size="14" font-family="CeraPro-Regular, Cera Pro"><tspan x="-16.324" y="0">60</tspan></text><text transform="translate(261 284)" fill="#a3a3a3" font-size="14" font-family="CeraPro-Regular, Cera Pro"><tspan x="-15.54" y="0">55</tspan></text><text transform="translate(261 323)" fill="#a3a3a3" font-size="14" font-family="CeraPro-Regular, Cera Pro"><tspan x="-16.38" y="0">50</tspan></text><text transform="translate(261 362)" fill="#a3a3a3" font-size="14" font-family="CeraPro-Regular, Cera Pro"><tspan x="-15.442" y="0">45</tspan></text><text transform="translate(261 401)" fill="#a3a3a3" font-size="14" font-family="CeraPro-Regular, Cera Pro"><tspan x="-16.282" y="0">40</tspan></text><text transform="translate(261 440)" fill="#a3a3a3" font-size="14" font-family="CeraPro-Regular, Cera Pro"><tspan x="-15.302" y="0">35</tspan></text><text transform="translate(261 479)" fill="#a3a3a3" font-size="14" font-family="CeraPro-Regular, Cera Pro"><tspan x="-16.142" y="0">30</tspan></text><text transform="translate(261 518)" fill="#a3a3a3" font-size="14" font-family="CeraPro-Regular, Cera Pro"><tspan x="-15.61" y="0">25</tspan></text><text transform="translate(261 557)" fill="#a3a3a3" font-size="14" font-family="CeraPro-Regular, Cera Pro"><tspan x="-16.45" y="0">20</tspan></text><text transform="translate(261 596)" fill="#a3a3a3" font-size="14" font-family="CeraPro-Regular, Cera Pro"><tspan x="-13.076" y="0">15</tspan></text><text transform="translate(261 636)" fill="#a3a3a3" font-size="14" font-family="CeraPro-Regular, Cera Pro"><tspan x="-13.916" y="0">10</tspan></text><path d="M271,164h850" fill="none" stroke="#f0f0f0" stroke-width="1"/><path d="M271,203h850" fill="none" stroke="#f0f0f0" stroke-width="1"/><path d="M271,242h850" fill="none" stroke="#f0f0f0" stroke-width="1"/><path d="M271,281h850" fill="none" stroke="#f0f0f0" stroke-width="1"/><path d="M271,320h850" fill="none" stroke="#f0f0f0" stroke-width="1"/><path d="M271,359h850" fill="none" stroke="#f0f0f0" stroke-width="1"/><path d="M271,398h850" fill="none" stroke="#f0f0f0" stroke-width="1"/><path d="M271,437h850" fill="none" stroke="#f0f0f0" stroke-width="1"/><path d="M271,476h850" fill="none" stroke="#f0f0f0" stroke-width="1"/><path d="M271,515h850" fill="none" stroke="#f0f0f0" stroke-width="1"/><path d="M271,554h850" fill="none" stroke="#f0f0f0" stroke-width="1"/><path d="M271,593h850" fill="none" stroke="#f0f0f0" stroke-width="1"/><path d="M271,633h850" fill="none" stroke="#f0f0f0" stroke-width="1"/><path d="M4,0H35a4,4,0,0,1,4,4V334a0,0,0,0,1,0,0H0a0,0,0,0,1,0,0V4A4,4,0,0,1,4,0Z" transform="translate(426 300)" fill="#ffa630"/><path d="M4,0H35a4,4,0,0,1,4,4V239a0,0,0,0,1,0,0H0a0,0,0,0,1,0,0V4A4,4,0,0,1,4,0Z" transform="translate(636 395)" fill="#ffa630"/><path d="M4,0H35a4,4,0,0,1,4,4V271a0,0,0,0,1,0,0H0a0,0,0,0,1,0,0V4A4,4,0,0,1,4,0Z" transform="translate(854 363)" fill="#ffa630"/><path d="M4,0H35a4,4,0,0,1,4,4V356a0,0,0,0,1,0,0H0a0,0,0,0,1,0,0V4A4,4,0,0,1,4,0Z" transform="translate(495 278)" fill="#08a4ed"/><path d="M4,0H35a4,4,0,0,1,4,4V271a0,0,0,0,1,0,0H0a0,0,0,0,1,0,0V4A4,4,0,0,1,4,0Z" transform="translate(705 363)" fill="#08a4ed"/><path d="M4,0H35a4,4,0,0,1,4,4V356a0,0,0,0,1,0,0H0a0,0,0,0,1,0,0V4A4,4,0,0,1,4,0Z" transform="translate(923 278)" fill="#08a4ed"/></g></svg>