<svg xmlns="http://www.w3.org/2000/svg" width="173.782" height="35.054" viewBox="0 0 173.782 35.054"><g transform="translate(278.001 269)"><g transform="translate(-21.704 9.186)"><g transform="translate(-220 -269.946)"><path d="M37.605,119.688v-3.931h3.1c2.359,0,2.359,3.931,0,3.931Zm0,10.122V123.1H41c6.805,0,6.83-10.835,0-10.835h-6.9v17.542Z" transform="translate(-16.476 -111.606)" fill="#fff"/><path d="M65.664,124.006l1.646-4.569,1.6,4.569Zm-5.945,5.184H63.7l.688-1.892H70.21l.713,1.892h3.955l-7.4-18.205h-.368Z" transform="translate(-28.861 -110.985)" fill="#fff"/><path d="M97.324,119.666v-3.931h3.1c2.383,0,2.383,3.931,0,3.931Zm5.233,10.122h3.98l-4.078-7.247c5.159-1.5,4.545-10.319-1.72-10.319H93.811v17.566h3.513v-6.707h1.7Z" transform="translate(-45.338 -111.583)" fill="#fff"/><path d="M127.991,129.811V115.758h4.373v-3.489H120.1v3.489h4.373v14.053Z" transform="translate(-58.045 -111.605)" fill="#fff"/><path d="M157.024,119.413,150.1,111.7h-1.131v17.837h3.563v-9.8l4.5,4.717,4.5-4.717-.024,9.8h3.562V111.7h-1.106Z" transform="translate(-71.993 -111.33)" fill="#fff"/><path d="M196.854,129.788v-3.513h-5.577v-3.514H195.9v-3.513h-4.619v-3.513h5.282v-3.513h-8.8v17.566Z" transform="translate(-90.744 -111.583)" fill="#fff"/><path d="M215.241,119.886l8.894,9.926h.934V111.9h-3.538v9.926l-8.869-10.319h-.934v17.935h3.513Z" transform="translate(-102.326 -111.238)" fill="#fff"/><path d="M250.235,129.811V115.758h4.373v-3.489h-12.26v3.489h4.373v14.053Z" transform="translate(-117.124 -111.605)" fill="#fff"/><path d="M7.592,119.437l1.6,4.569H5.946Zm-.2-8.452L0,129.19H3.98l.688-1.892h5.823l.713,1.892h3.955l-7.4-18.205Z" transform="translate(0 -110.985)" fill="#fff"/></g></g><path d="M.005,0V35.054H3.964V17.843l11.325-6.672v8.562l-4.116,2.395V35.054h4.116V19.734l7.21,4.249V35.054h4.213V0Z" transform="translate(-278.007 -269)" fill="#fff"/></g></svg>